<?xml version="1.0" encoding="UTF-8" standalone="no"?>
<svg width="146px" height="146px" viewBox="0 0 146 146" version="1.1" xmlns="http://www.w3.org/2000/svg" xmlns:xlink="http://www.w3.org/1999/xlink">
    <!-- Generator: Sketch 39.1 (31720) - http://www.bohemiancoding.com/sketch -->
    <title>arrested_icon</title>
    <desc>Created with Sketch.</desc>
    <defs></defs>
    <g id="Website-1024" stroke="none" stroke-width="1" fill="none" fill-rule="evenodd">
        <g id="how-it-works-v.2" transform="translate(-286.000000, -742.000000)">
            <g id="know-what-to-expect" transform="translate(0.000000, 534.000000)">
                <g id="graphic" transform="translate(186.000000, 211.000000)">
                    <g id="arrested_icon" transform="translate(103.000000, 0.000000)">
                        <g id="Group" transform="translate(11.000000, 40.000000)" fill="#F7F9F9">
                            <path d="M41.8855747,41.4318783 L42.7994418,40.9798942 C43.2563754,40.8292328 43.5609977,40.3772487 43.7133089,39.9252646 C43.8656201,39.4732804 43.8656201,39.0212963 43.5609977,38.5693122 L40.9717077,33.296164 C40.8193965,32.8441799 40.3624629,32.5428571 39.9055294,32.3921958 C39.4485958,32.2415344 38.9916623,32.2415344 38.5347288,32.5428571 L37.3162393,33.1455026 C35.4885051,29.680291 35.4885051,26.2150794 35.336194,22.448545 C35.336194,18.5313492 35.1838828,14.4634921 33.0515263,10.2449735 L33.0515263,10.2449735 C33.0515263,10.0943122 32.8992151,9.94365079 32.8992151,9.94365079 L29.5483691,3.01322751 C28.4821908,0.903968254 25.7405896,4.22994972e-14 23.608233,1.05462963 C22.8466771,1.35595238 22.2374324,1.95859788 21.93281,2.71190476 C20.5620094,0.903968254 17.9727193,0.301322751 15.992674,1.35595238 C14.7741845,1.95859788 14.0126286,2.86256614 13.5556951,4.21851852 C12.1848945,3.46521164 10.5094715,3.31455026 8.98635967,4.06785714 C7.1586255,4.9718254 6.24475842,6.7797619 6.3970696,8.73835979 C5.33089133,8.58769841 4.26471306,8.73835979 3.35084598,9.19034392 C2.13235653,9.79298942 1.37080063,10.6969577 0.913867085,11.9022487 C0.456933543,13.1075397 0.609244724,14.4634921 1.21848945,15.5181217 L2.28466771,17.627381 C-0.609244724,19.2846561 0.304622362,23.3525132 1.21848945,25.6124339 L3.04622362,28.9269841 L3.04622362,28.9269841 C5.33089133,33.296164 8.83404849,35.1041005 11.8802721,36.6107143 C14.7741845,38.117328 17.2111634,39.322619 18.5819641,42.3358466 L16.6019187,43.2398148 C15.6880516,43.6917989 15.2311181,44.7464286 15.6880516,45.6503968 L18.2773417,50.923545 C18.4296529,51.3755291 18.8865864,51.6768519 19.34352,51.8275132 C19.4958312,51.8275132 19.8004535,51.9781746 19.9527647,51.9781746 C20.2573871,51.9781746 20.5620094,51.9781746 20.7143206,51.8275132 L22.2374324,51.0742063 L29.2437467,66.1403439 C29.3960579,66.592328 29.8529915,66.7429894 30.309925,66.7429894 C30.4622362,66.7429894 30.6145474,66.7429894 30.7668585,66.592328 C31.3761033,66.2910053 31.5284144,65.6883598 31.3761033,65.0857143 L24.3697889,49.8689153 L40.0578406,42.3358466 L47.978022,56.6486772 C48.1303332,56.95 48.5872667,57.2513228 48.8918891,57.2513228 C49.0442002,57.2513228 49.1965114,57.2513228 49.5011338,57.1006614 C50.1103785,56.7993386 50.2626897,56.1966931 49.9580673,55.5940476 L41.8855747,41.4318783 L41.8855747,41.4318783 Z M24.6744113,2.86256614 C25.7405896,2.25992063 27.1113902,2.71190476 27.7206349,3.76653439 L31.0714809,10.6969577 C31.6807256,11.7515873 31.2237921,13.1075397 30.1576138,13.5595238 C29.0914355,14.1621693 27.5683237,13.5595238 27.1113902,12.5048942 L26.0452119,10.3956349 L26.0452119,10.3956349 L23.7605442,5.5744709 C23.1512995,4.51984127 23.608233,3.31455026 24.6744113,2.86256614 L24.6744113,2.86256614 Z M16.9065411,3.01322751 C18.2773417,2.41058201 19.8004535,2.86256614 20.4096982,4.21851852 L21.6281877,6.62910053 L21.6281877,6.7797619 L21.6281877,6.7797619 L23.7605442,11.2996032 L23.7605442,11.2996032 L23.7605442,11.2996032 L24.9790337,13.7101852 C25.5882784,14.9154762 25.1313448,16.5727513 23.7605442,17.1753968 C23.1512995,17.4767196 22.3897436,17.4767196 21.7804989,17.3260582 C21.1712541,17.1753968 20.5620094,16.7234127 20.2573871,15.9701058 L18.4296529,12.5048942 L15.5357405,6.62910053 L15.5357405,6.62910053 C15.0788069,5.42380952 15.6880516,3.76653439 16.9065411,3.01322751 L16.9065411,3.01322751 Z M9.90022676,5.72513228 C11.2710274,5.12248677 12.7941392,5.5744709 13.4033839,6.93042328 L16.7542299,13.7101852 L16.7542299,13.7101852 L16.7542299,13.7101852 L17.2111634,14.4634921 L18.4296529,17.1753968 C18.7342752,17.7780423 18.7342752,18.5313492 18.5819641,19.1339947 C18.4296529,19.7366402 17.9727193,20.3392857 17.3634746,20.6406085 C17.2111634,20.6406085 17.0588523,20.7912698 16.9065411,20.9419312 C16.7542299,21.0925926 16.6019187,21.0925926 16.4496075,21.243254 L15.3834293,21.243254 C15.5357405,20.9419312 15.6880516,20.7912698 15.8403628,20.4899471 C16.2972964,19.2846561 16.2972964,17.7780423 15.8403628,16.5727513 C15.2311181,15.3674603 14.317251,14.3128307 13.0987616,13.8608466 C12.3372057,13.5595238 11.7279609,13.4088624 10.966405,13.5595238 L9.90022676,11.2996032 C9.74791558,10.9982804 9.5956044,10.847619 9.44329321,10.6969577 L8.83404849,9.64232804 C8.07249259,7.98505291 8.52942613,6.32777778 9.90022676,5.72513228 L9.90022676,5.72513228 Z M2.89391244,12.2035714 C3.04622362,11.6009259 3.50315716,10.9982804 4.11240188,10.6969577 C4.72164661,10.3956349 5.48320251,10.3956349 6.09244724,10.5462963 C6.54938078,10.6969577 7.00631432,10.9982804 7.31093668,11.2996032 L8.22480377,13.1075397 C8.22480377,13.1075397 8.22480377,13.1075397 8.37711495,13.2582011 L8.52942613,13.7101852 C7.76787023,14.0115079 5.94013605,15.0661376 4.11240188,16.1207672 L3.04622362,14.1621693 C2.74160126,13.5595238 2.74160126,12.9568783 2.89391244,12.2035714 L2.89391244,12.2035714 Z M12.7941392,34.3507937 C9.74791558,32.8441799 6.85400314,31.3375661 4.87395779,27.5710317 L4.87395779,27.5710317 L4.87395779,27.5710317 L3.04622362,24.4071429 C2.89391244,23.9551587 1.52311181,20.1886243 3.1985348,19.2846561 C5.78782487,17.7780423 9.44329321,15.9701058 9.74791558,15.8194444 L9.90022676,15.8194444 C10.0525379,15.8194444 10.3571603,15.8194444 10.5094715,15.6687831 L10.6617827,15.6687831 C11.1187162,15.6687831 11.5756497,15.6687831 12.0325833,15.8194444 C12.7941392,16.1207672 13.4033839,16.7234127 13.7080063,17.3260582 C14.0126286,18.0793651 14.0126286,18.832672 13.7080063,19.5859788 C13.4033839,20.3392857 12.7941392,20.9419312 12.0325833,21.243254 L8.83404849,22.7498677 C8.07249259,23.0511905 7.61555904,23.3525132 7.61555904,23.3525132 C7.1586255,23.653836 6.85400314,24.2564815 7.1586255,24.859127 C7.46324786,25.3111111 8.07249259,25.6124339 8.68173731,25.3111111 L8.83404849,25.3111111 L9.5956044,25.0097884 C11.4233386,24.1058201 15.992674,22.448545 19.9527647,24.2564815 C23.3036107,25.6124339 25.7405896,29.2283069 26.959079,34.6521164 C27.1113902,35.1041005 27.5683237,35.5560847 28.0252573,35.5560847 L28.3298796,35.5560847 C28.9391244,35.4054233 29.2437467,34.8027778 29.0914355,34.2001323 C27.5683237,28.0230159 24.8267225,24.1058201 20.7143206,22.2978836 C20.2573871,22.1472222 19.9527647,21.9965608 19.4958312,21.8458995 C19.9527647,21.3939153 20.2573871,20.7912698 20.5620094,20.1886243 C20.5620094,20.037963 20.5620094,19.8873016 20.7143206,19.7366402 C20.8666318,19.8873016 21.018943,19.8873016 21.3235653,20.037963 C21.7804989,20.1886243 22.3897436,20.3392857 22.8466771,20.3392857 C23.608233,20.3392857 24.3697889,20.1886243 24.9790337,19.8873016 C26.3498343,19.1339947 27.2637014,17.7780423 27.5683237,16.4220899 C28.0252573,16.5727513 28.634502,16.7234127 29.2437467,16.7234127 C29.8529915,16.7234127 30.4622362,16.5727513 31.0714809,16.2714286 C31.6807256,15.9701058 32.1376592,15.6687831 32.4422815,15.2167989 C33.0515263,17.7780423 33.2038374,20.3392857 33.2038374,23.0511905 C33.2038374,26.8177249 33.3561486,30.7349206 35.336194,34.6521164 L20.5620094,41.7332011 C18.7342752,37.3640212 15.6880516,35.8574074 12.7941392,34.3507937 L12.7941392,34.3507937 Z M20.1050759,49.2662698 L17.8204082,44.5957672 L39.1439735,34.3507937 L41.4286412,39.0212963 L20.1050759,49.2662698 L20.1050759,49.2662698 Z" id="Shape"></path>
                            <path d="M115.451875,17.3260582 L116.518053,15.2167989 C117.127298,14.0115079 117.127298,12.8062169 116.822676,11.6009259 C116.365742,10.3956349 115.604186,9.49166667 114.385697,8.88902116 C113.47183,8.43703704 112.405651,8.28637566 111.339473,8.43703704 C111.491784,6.47843915 110.425606,4.67050265 108.750183,3.76653439 C107.227071,3.01322751 105.551648,3.16388889 104.180848,3.91719577 C103.723914,2.71190476 102.962358,1.65727513 101.743869,1.05462963 C99.6115123,-3.09474668e-13 97.1745334,0.602645503 95.8037328,2.41058201 C95.3467992,1.80793651 94.7375545,1.20529101 94.1283098,0.753306878 C93.0621315,0.150661376 91.8436421,0.150661376 90.7774638,0.451984127 C89.7112855,0.753306878 88.7974185,1.65727513 88.1881737,2.71190476 L84.8373278,9.64232804 C84.8373278,9.79298942 84.6850166,9.94365079 84.6850166,9.94365079 L84.6850166,9.94365079 C82.55266,14.1621693 82.55266,18.2300265 82.4003489,22.1472222 C82.4003489,25.9137566 82.2480377,29.3789683 80.4203035,32.8441799 L79.2018141,32.2415344 C78.7448805,32.090873 78.287947,31.9402116 77.8310134,32.090873 C77.3740799,32.2415344 76.9171463,32.5428571 76.7648352,32.9948413 L74.1755451,38.2679894 C74.0232339,38.7199735 73.8709227,39.1719577 74.0232339,39.6239418 C74.1755451,40.0759259 74.4801675,40.5279101 74.937101,40.6785714 L75.8509681,41.1305556 L67.9307867,55.2927249 C67.6261643,55.8953704 67.7784755,56.4980159 68.3877202,56.7993386 C68.5400314,56.95 68.6923426,56.95 68.9969649,56.95 C69.4538985,56.95 69.7585208,56.7993386 69.910832,56.3473545 L77.8310134,42.0345238 L93.5190651,49.5675926 L86.5127507,64.7843915 C86.2081284,65.387037 86.5127507,65.9896825 87.1219955,66.2910053 C87.2743066,66.2910053 87.4266178,66.4416667 87.578929,66.4416667 C88.0358626,66.4416667 88.3404849,66.1403439 88.6451073,65.8390212 L95.6514216,50.7728836 L97.1745334,51.5261905 C97.4791558,51.6768519 97.6314669,51.6768519 97.9360893,51.6768519 C98.0884005,51.6768519 98.3930229,51.6768519 98.545334,51.5261905 C99.0022676,51.3755291 99.4592011,51.0742063 99.6115123,50.6222222 L102.200802,45.3490741 C102.353114,44.8970899 102.505425,44.4451058 102.353114,43.9931217 C102.200802,43.5411376 101.89618,43.0891534 101.439246,42.9384921 L99.4592011,42.0345238 C100.830002,39.1719577 103.419292,37.8160053 106.160893,36.3093915 C109.207117,34.8027778 112.710274,32.9948413 114.994942,28.6256614 L114.994942,28.6256614 L116.822676,25.3111111 L116.822676,25.1604497 C117.43192,23.0511905 118.345788,18.832672 115.451875,17.3260582 L115.451875,17.3260582 Z M113.319519,10.847619 C113.928763,11.1489418 114.385697,11.7515873 114.538008,12.3542328 C114.690319,12.9568783 114.690319,13.7101852 114.385697,14.3128307 L113.319519,16.2714286 C111.491784,15.2167989 109.511739,14.3128307 108.902494,13.8608466 L109.054806,13.4088624 C109.054806,13.4088624 109.054806,13.4088624 109.207117,13.2582011 L110.120984,11.4502646 C110.425606,11.1489418 110.88254,10.847619 111.339473,10.6969577 C112.101029,10.3956349 112.710274,10.5462963 113.319519,10.847619 L113.319519,10.847619 Z M107.684005,5.72513228 C109.054806,6.32777778 109.511739,7.98505291 108.902494,9.19034392 L108.29325,10.2449735 C108.140938,10.3956349 107.988627,10.6969577 107.836316,10.847619 L106.770138,13.1075397 C104.637781,12.9568783 102.657736,14.1621693 101.743869,16.2714286 C101.134624,17.4767196 101.134624,18.9833333 101.743869,20.1886243 C101.89618,20.4899471 102.048491,20.6406085 102.200802,20.9419312 L101.134624,20.9419312 C100.982313,20.9419312 100.830002,20.7912698 100.677691,20.6406085 C100.525379,20.4899471 100.373068,20.4899471 100.220757,20.3392857 C99.6115123,20.037963 99.1545788,19.5859788 99.0022676,18.832672 C98.8499564,18.2300265 98.8499564,17.4767196 99.1545788,16.8740741 L100.373068,14.3128307 L104.028537,6.7797619 C104.790092,5.5744709 106.465515,5.12248677 107.684005,5.72513228 L107.684005,5.72513228 Z M98.6976452,2.86256614 C99.3068899,2.71190476 100.068446,2.71190476 100.677691,3.01322751 C101.286935,3.31455026 101.743869,3.91719577 102.048491,4.51984127 C102.200802,5.27314815 102.200802,6.02645503 101.89618,6.62910053 L101.89618,6.62910053 L99.0022676,12.6555556 L97.1745334,16.1207672 C96.5652887,17.3260582 95.0421769,17.9287037 93.6713762,17.3260582 C93.0621315,17.0247354 92.605198,16.4220899 92.4528868,15.8194444 C92.3005756,15.2167989 92.3005756,14.4634921 92.605198,13.8608466 L93.8236874,11.4502646 L93.8236874,11.4502646 L93.8236874,11.4502646 L95.956044,6.93042328 L95.956044,6.93042328 L95.956044,6.7797619 L97.1745334,4.36917989 C97.4791558,3.61587302 97.9360893,3.16388889 98.6976452,2.86256614 L98.6976452,2.86256614 Z M89.8635967,3.76653439 C90.4728414,2.71190476 91.8436421,2.25992063 92.9098203,2.71190476 C93.9759986,3.31455026 94.4329321,4.51984127 93.9759986,5.5744709 L91.6913309,10.3956349 L91.6913309,10.3956349 L90.6251526,12.5048942 L90.6251526,12.5048942 C90.0159079,13.5595238 88.6451073,14.1621693 87.578929,13.5595238 C86.5127507,12.9568783 86.0558172,11.7515873 86.6650619,10.5462963 L89.8635967,3.76653439 L89.8635967,3.76653439 Z M97.4791558,49.2662698 L76.1555904,39.0212963 L78.4402582,34.3507937 L99.7638235,44.5957672 L97.4791558,49.2662698 L97.4791558,49.2662698 Z M114.538008,24.2564815 L112.710274,27.4203704 L112.710274,27.4203704 L112.710274,27.4203704 C110.730229,31.1869048 107.836316,32.6935185 104.790092,34.2001323 C101.89618,35.706746 98.8499564,37.2133598 97.0222222,40.8292328 L82.2480377,33.7481481 C84.228083,29.8309524 84.3803942,25.9137566 84.3803942,22.1472222 C84.3803942,19.4353175 84.3803942,16.8740741 85.1419501,14.3128307 C85.4465725,14.7648148 86.0558172,15.2167989 86.5127507,15.3674603 C87.1219955,15.6687831 87.7312402,15.8194444 88.3404849,15.8194444 C88.9497296,15.8194444 89.4066632,15.6687831 90.0159079,15.5181217 C90.0159079,15.8194444 90.1682191,15.9701058 90.1682191,16.2714286 C90.6251526,17.4767196 91.3867085,18.3806878 92.605198,18.9833333 C93.3667539,19.2846561 93.9759986,19.4353175 94.7375545,19.4353175 C95.4991104,19.4353175 96.1083551,19.2846561 96.869911,18.9833333 C96.869911,19.1339947 96.869911,19.2846561 97.0222222,19.4353175 C97.1745334,20.037963 97.6314669,20.6406085 98.0884005,21.0925926 C97.6314669,21.243254 97.3268446,21.3939153 96.869911,21.5445767 C92.7575092,23.2018519 90.0159079,27.269709 88.4927961,33.4468254 C88.3404849,34.0494709 88.6451073,34.6521164 89.254352,34.8027778 L89.5589744,34.8027778 C90.0159079,34.8027778 90.4728414,34.501455 90.6251526,33.8988095 C91.9959533,28.475 94.280621,25.0097884 97.6314669,23.5031746 C101.591558,21.8458995 106.160893,23.5031746 107.988627,24.2564815 L108.750183,24.7084656 L108.902494,24.7084656 C109.359428,25.0097884 110.120984,24.859127 110.425606,24.2564815 C110.730229,23.8044974 110.577917,23.0511905 109.968673,22.7498677 C109.968673,22.7498677 109.511739,22.448545 108.750183,22.1472222 L105.551648,20.6406085 C104.790092,20.3392857 104.333159,19.7366402 104.028537,18.9833333 C103.723914,18.2300265 103.723914,17.4767196 104.028537,16.7234127 C104.48547,15.5181217 105.856271,14.9154762 107.07476,14.9154762 L107.227071,14.9154762 C107.379383,15.0661376 107.684005,15.0661376 107.836316,15.0661376 L107.988627,15.0661376 C108.29325,15.2167989 111.948718,17.1753968 114.538008,18.5313492 C115.908809,20.037963 114.994942,23.2018519 114.538008,24.2564815 L114.538008,24.2564815 Z" id="Shape"></path>
                            <path d="M52.0904239,31.3375661 C51.4811791,31.0362434 50.7196232,30.885582 49.9580673,31.0362434 L46.4549102,32.090873 C45.6933543,32.2415344 45.0841095,32.6935185 44.7794872,33.4468254 C44.4748648,34.0494709 44.3225536,34.8027778 44.4748648,35.5560847 C44.627176,36.3093915 45.0841095,36.912037 45.8456654,37.2133598 C46.1502878,37.3640212 46.6072214,37.5146825 46.9118437,37.5146825 C47.2164661,37.5146825 47.5210884,37.5146825 47.978022,37.3640212 L51.4811791,36.3093915 C52.242735,36.1587302 52.8519798,35.706746 53.1566021,34.9534392 C53.4612245,34.3507937 53.6135357,33.5974868 53.4612245,32.8441799 C53.1566021,32.2415344 52.6996686,31.6388889 52.0904239,31.3375661 L52.0904239,31.3375661 Z M51.1765568,34.0494709 C51.1765568,34.2001323 51.0242456,34.2001323 50.8719344,34.3507937 L47.3687773,35.4054233 L46.9118437,35.4054233 C46.7595325,35.4054233 46.7595325,35.2547619 46.6072214,35.1041005 L46.6072214,34.6521164 C46.6072214,34.501455 46.7595325,34.501455 46.9118437,34.3507937 L50.4150009,33.296164 L50.5673121,33.296164 L50.8719344,33.296164 C51.0242456,33.296164 51.0242456,33.4468254 51.1765568,33.5974868 C51.328868,33.7481481 51.328868,33.8988095 51.1765568,34.0494709 L51.1765568,34.0494709 Z" id="Shape"></path>
                            <path d="M60.7721612,29.9816138 L57.1166928,29.9816138 C55.593581,29.9816138 54.2227804,31.1869048 54.2227804,32.6935185 C54.2227804,34.2001323 55.2889587,35.4054233 56.8120705,35.5560847 L56.9643817,35.5560847 L60.61985,35.5560847 C61.3814059,35.5560847 62.1429618,35.2547619 62.5998953,34.8027778 C63.2091401,34.3507937 63.3614512,33.5974868 63.5137624,32.8441799 C63.5137624,32.090873 63.2091401,31.3375661 62.7522065,30.885582 C62.295273,30.2829365 61.5337171,29.9816138 60.7721612,29.9816138 L60.7721612,29.9816138 Z M61.2290947,33.1455026 C61.2290947,33.1455026 61.0767835,33.296164 60.7721612,33.296164 L57.1166928,33.296164 C56.8120705,33.296164 56.5074481,32.9948413 56.5074481,32.6935185 C56.5074481,32.3921958 56.8120705,32.090873 57.1166928,32.090873 L60.7721612,32.090873 L60.7721612,32.090873 C60.9244724,32.090873 61.0767835,32.2415344 61.0767835,32.2415344 C61.0767835,32.2415344 61.2290947,32.3921958 61.2290947,32.6935185 C61.3814059,32.9948413 61.3814059,33.1455026 61.2290947,33.1455026 L61.2290947,33.1455026 Z" id="Shape"></path>
                            <path d="M71.2816327,31.1869048 L67.7784755,30.5842593 C66.2553637,30.2829365 64.7322519,31.3375661 64.5799407,32.8441799 C64.2753183,34.3507937 65.3414966,35.8574074 66.8646084,36.0080688 L70.3677656,36.6107143 L70.5200767,36.6107143 C71.1293215,36.6107143 71.8908774,36.4600529 72.3478109,36.1587302 C72.9570556,35.706746 73.4139892,35.1041005 73.4139892,34.3507937 C73.5663004,33.5974868 73.4139892,32.8441799 72.9570556,32.2415344 C72.6524333,31.6388889 72.0431886,31.1869048 71.2816327,31.1869048 L71.2816327,31.1869048 Z M71.1293215,34.3507937 C70.9770103,34.3507937 70.8246991,34.501455 70.6723879,34.501455 L67.1692308,33.8988095 C66.8646084,33.8988095 66.559986,33.5974868 66.7122972,33.1455026 C66.7122972,32.8441799 67.0169196,32.6935185 67.321542,32.6935185 L67.321542,32.6935185 L70.8246991,33.296164 C70.9770103,33.296164 71.1293215,33.4468254 71.2816327,33.5974868 C71.2816327,33.5974868 71.4339438,33.8988095 71.4339438,34.0494709 C71.4339438,34.2001323 71.2816327,34.3507937 71.1293215,34.3507937 L71.1293215,34.3507937 Z" id="Shape"></path>
                        </g>
                        <circle id="Oval-4" stroke="#F7F9F9" stroke-width="6" cx="70" cy="70" r="70"></circle>
                    </g>
                </g>
            </g>
        </g>
    </g>
</svg>