<?xml version="1.0" encoding="UTF-8" standalone="no"?>
<svg width="76px" height="76px" viewBox="0 0 76 76" version="1.1" xmlns="http://www.w3.org/2000/svg" xmlns:xlink="http://www.w3.org/1999/xlink">
    <!-- Generator: Sketch 39.1 (31720) - http://www.bohemiancoding.com/sketch -->
    <title>balance icon</title>
    <desc>Created with Sketch.</desc>
    <defs></defs>
    <g id="Website-1024" stroke="none" stroke-width="1" fill="none" fill-rule="evenodd">
        <g id="home" transform="translate(-774.000000, -744.000000)">
            <g id="how-it-works" transform="translate(0.000000, 572.000000)">
                <g id="how-it-work-steps" transform="translate(115.000000, 172.000000)">
                    <g id="balance-icon" transform="translate(659.000000, 0.000000)">
                        <path d="M38,76 C58.9868205,76 76,58.9868205 76,38 C76,17.0131795 58.9868205,0 38,0 C17.0131795,0 0,17.0131795 0,38 C0,58.9868205 17.0131795,76 38,76 Z" id="Oval-2" fill="#40B097"></path>
                        <g id="balance" transform="translate(14.000000, 17.000000)" stroke-width="2" stroke="#F7F9F9" fill="#9B9B9B">
                            <g id="Capa_1">
                                <g id="Group">
                                    <g transform="translate(3.114286, 2.758621)" id="Shape">
                                        <path d="M24.0932571,4.0937931 C23.7641143,4.0937931 23.4733714,3.85517241 23.4171429,3.51724138 C23.3554286,3.14068966 23.6077714,2.78758621 23.9808,2.72413793 L38.8128,0.234482759 C39.1872,0.175172414 39.5396571,0.424827586 39.6027429,0.80137931 C39.6644571,1.17655172 39.4121143,1.53103448 39.0390857,1.59448276 L24.2070857,4.08413793 C24.1700571,4.09103448 24.1316571,4.0937931 24.0932571,4.0937931 L24.0932571,4.0937931 Z"></path>
                                        <path d="M0.843428571,7.99586207 C0.514285714,7.99586207 0.223542857,7.75724138 0.167314286,7.41931034 C0.1056,7.04413793 0.357942857,6.68965517 0.730971429,6.6262069 L15.6781714,4.11724138 C16.0566857,4.04965517 16.4050286,4.30896552 16.4681143,4.68413793 C16.5298286,5.05931034 16.2774857,5.4137931 15.9044571,5.47724138 L0.957257143,7.9862069 C0.918857143,7.99310345 0.881828571,7.99586207 0.843428571,7.99586207 L0.843428571,7.99586207 Z"></path>
                                    </g>
                                    <g transform="translate(0.000000, 3.137931)" id="Shape">
                                        <g transform="translate(0.000000, 0.517241)">
                                            <path d="M37.1750857,24.7310345 C32.5149714,24.7310345 28.7229714,20.9158621 28.7229714,16.2289655 C28.7229714,15.8482759 29.0301714,15.5393103 29.4086857,15.5393103 L44.9428571,15.5393103 C45.3213714,15.5393103 45.6285714,15.8482759 45.6285714,16.2289655 C45.6285714,20.9172414 41.8365714,24.7310345 37.1750857,24.7310345 L37.1750857,24.7310345 Z M30.1273143,16.9186207 C30.4729143,20.5241379 33.5024,23.3517241 37.1750857,23.3517241 C40.8491429,23.3517241 43.8772571,20.5241379 44.2242286,16.9186207 L30.1273143,16.9186207 L30.1273143,16.9186207 Z"></path>
                                            <path d="M29.4086857,16.9186207 C29.3017143,16.9186207 29.1933714,16.8924138 29.0918857,16.84 C28.7558857,16.6634483 28.6269714,16.2468966 28.8011429,15.9089655 L36.5675429,0.942068966 C36.8048,0.486896552 37.5467429,0.486896552 37.784,0.942068966 L45.5517714,15.9089655 C45.7259429,16.2468966 45.5970286,16.6634483 45.2610286,16.84 C44.9264,17.0151724 44.5108571,16.8841379 44.3353143,16.5475862 L37.1764571,2.75310345 L30.0176,16.5475862 C29.8941714,16.7834483 29.6555429,16.9186207 29.4086857,16.9186207 L29.4086857,16.9186207 Z"></path>
                                            <path d="M8.82491429,29.1931034 C4.16342857,29.1931034 0.371428571,25.377931 0.371428571,20.6910345 C0.371428571,20.3103448 0.678628571,20.0013793 1.05714286,20.0013793 L16.5913143,20.0013793 C16.9698286,20.0013793 17.2770286,20.3103448 17.2770286,20.6910345 C17.2770286,25.377931 13.4850286,29.1931034 8.82491429,29.1931034 L8.82491429,29.1931034 Z M1.77577143,21.3806897 C2.12137143,24.9862069 5.15085714,27.8137931 8.82491429,27.8137931 C12.4976,27.8137931 15.5270857,24.9862069 15.8726857,21.3806897 L1.77577143,21.3806897 L1.77577143,21.3806897 Z"></path>
                                            <path d="M16.5913143,21.3806897 C16.3444571,21.3806897 16.1058286,21.2455172 15.9824,21.0096552 L8.82354286,7.21517241 L1.66468571,21.0096552 C1.48914286,21.3475862 1.07497143,21.4758621 0.738971429,21.302069 C0.402971429,21.1255172 0.274057143,20.7089655 0.448228571,20.3710345 L8.216,5.40413793 C8.45325714,4.94896552 9.1952,4.94896552 9.43245714,5.40413793 L17.1988571,20.3710345 C17.3730286,20.7089655 17.2441143,21.1255172 16.9081143,21.302069 C16.8066286,21.3544828 16.6982857,21.3806897 16.5913143,21.3806897 L16.5913143,21.3806897 Z"></path>
                                        </g>
                                    </g>
                                    <path d="M23,11.7655172 C20.3147429,11.7655172 18.1300571,9.56827586 18.1300571,6.86758621 C18.1300571,4.16827586 20.3147429,1.97103448 23,1.97103448 C25.6852571,1.97103448 27.8699429,4.16827586 27.8699429,6.86758621 C27.8699429,9.56965517 25.6852571,11.7655172 23,11.7655172 L23,11.7655172 Z M23,3.35172414 C21.0704,3.35172414 19.5014857,4.92965517 19.5014857,6.86896552 C19.5014857,8.80827586 21.0704,10.3875862 23,10.3875862 C24.9296,10.3875862 26.4985143,8.80827586 26.4985143,6.86896552 C26.4985143,4.92965517 24.9296,3.35172414 23,3.35172414 L23,3.35172414 Z" id="Shape"></path>
                                    <path d="M23,37.702069 C22.6214857,37.702069 22.3142857,37.3931034 22.3142857,37.0124138 L22.3142857,11.0758621 C22.3142857,10.6951724 22.6214857,10.3862069 23,10.3862069 C23.3785143,10.3862069 23.6857143,10.6951724 23.6857143,11.0758621 L23.6857143,37.0124138 C23.6857143,37.3931034 23.3785143,37.702069 23,37.702069 L23,37.702069 Z" id="Shape"></path>
                                    <path d="M23,3.35172414 C22.6214857,3.35172414 22.3142857,3.04275862 22.3142857,2.66206897 L22.3142857,0.987586207 C22.3142857,0.606896552 22.6214857,0.297931034 23,0.297931034 C23.3785143,0.297931034 23.6857143,0.606896552 23.6857143,0.987586207 L23.6857143,2.66206897 C23.6857143,3.04275862 23.3785143,3.35172414 23,3.35172414 L23,3.35172414 Z" id="Shape"></path>
                                    <path d="M32.0459429,37.702069 L13.9540571,37.702069 C13.5755429,37.702069 13.2683429,37.3931034 13.2683429,37.0124138 C13.2683429,36.6317241 13.5755429,36.3227586 13.9540571,36.3227586 L32.0459429,36.3227586 C32.4244571,36.3227586 32.7316571,36.6317241 32.7316571,37.0124138 C32.7316571,37.3931034 32.4258286,37.702069 32.0459429,37.702069 L32.0459429,37.702069 Z" id="Shape"></path>
                                </g>
                            </g>
                        </g>
                    </g>
                </g>
            </g>
        </g>
    </g>
</svg>