<?xml version="1.0" encoding="UTF-8"?>
<svg width="90px" height="26px" viewBox="0 0 90 26" version="1.1" xmlns="http://www.w3.org/2000/svg" xmlns:xlink="http://www.w3.org/1999/xlink">
    <!-- Generator: Sketch 46.2 (44496) - http://www.bohemiancoding.com/sketch -->
    <title>coil</title>
    <desc>Created with Sketch.</desc>
    <defs></defs>
    <g id="homepage" stroke="none" stroke-width="1" fill="none" fill-rule="evenodd">
        <g id="home_v2" transform="translate(-675.000000, -1225.000000)" stroke="#FDFFF9">
            <g id="what-is-gc" transform="translate(1.000000, 946.000000)">
                <g id="Good-Call-is-a-free-+-coil-+-Let-us-be-your-in-ca-Mask">
                    <g id="coil" transform="translate(675.000000, 280.000000)">
                        <path d="M15.0101016,4 C15.6545556,4 16.3323417,4.3918643 16.9494954,5.34334027 C17.5666492,6.2948273 18,7.74768593 18,9.39499911 C18,12.3446344 16.8486404,15.0198041 14.9898994,17 C13.137047,15.0208335 12,12.3393881 12,9.39499911 C12,7.74768593 12.4535529,6.2948273 13.0707078,5.34334027 C13.6878616,4.3918643 14.3656466,4 15.0101016,4 L15.0101016,4 Z" id="Path"></path>
                        <path d="M31.0101006,4 C31.6545545,4 32.3323406,4.3918643 32.9494944,5.34334027 C33.5666482,6.2948273 34,7.74768593 34,9.39499911 C34,12.3446344 32.8486394,15.0198041 30.9898984,17 C29.137047,15.0208335 28,12.3393881 28,9.39499911 C28,7.74768593 28.4535529,6.2948273 29.0707067,5.34334027 C29.6878605,4.3918643 30.3656466,4 31.0101006,4 L31.0101006,4 Z" id="Path"></path>
                        <path d="M47.0101011,4 C47.6545552,4 48.3323414,4.3918643 48.9494953,5.34334027 C49.5666491,6.2948273 50,7.74768593 50,9.39499911 C50,12.3446344 48.8486402,15.0198041 46.9898989,17 C45.1370472,15.0208335 44,12.3393881 44,9.39499911 C44,7.74768593 44.453553,6.2948273 45.0707069,5.34334027 C45.6878608,4.3918643 46.365647,4 47.0101011,4 L47.0101011,4 Z" id="Path"></path>
                        <path d="M63.0101016,4 C63.6545556,4 64.3323417,4.3918643 64.9494954,5.34334027 C65.5666492,6.2948273 66,7.74768593 66,9.39499911 C66,12.3446344 64.8486404,15.0198041 62.9898994,17 C61.137048,15.0208335 60,12.3393881 60,9.39499911 C60,7.74768593 60.4535529,6.2948273 61.0707078,5.34334027 C61.6878616,4.3918643 62.3656466,4 63.0101016,4 L63.0101016,4 Z" id="Path"></path>
                        <path d="M84.6225978,7.62326459 C84.6225978,8.44229675 84.6226007,9.13019176 84.6226007,9.13019176 C84.6226007,15.3277527 79.683246,20.3878164 73.468846,20.3878164 L71.5091212,20.3878164 C69.5740062,20.3878164 67.7700451,19.8988654 66.1928454,19.0360126 C69.80369,14.4160071 71.3718703,7.8560346 68.2359623,2.92520465 C67.1365556,1.24531276 65.446161,-3.55271368e-15 63.461739,-3.55271368e-15 C61.4773159,-3.55271368e-15 59.7660741,1.24531276 58.6666663,2.92520465 C55.6420448,8.05415306 57.1994111,14.9292743 60.7097843,19.0360126 C59.1325835,19.8988654 57.3286224,20.3878164 55.3935085,20.3878164 C53.4583935,20.3878164 51.6544324,19.8988654 50.0772327,19.0360126 C53.6880773,14.4160071 55.2562576,7.8560346 52.1203507,2.92520465 C51.0209429,1.24531276 49.3305494,-3.55271368e-15 47.3461263,-3.55271368e-15 C45.3617033,-3.55271368e-15 43.6504614,1.24531276 42.5510536,2.92520465 C39.5264321,8.05415306 41.0837984,14.9292743 44.5941716,19.0360126 C43.0169719,19.8988654 41.2130108,20.3878164 39.2778958,20.3878164 C37.3427819,20.3878164 35.5388208,19.8988654 33.96162,19.0360126 C37.5724646,14.4160071 39.1406449,7.8560346 36.004738,2.92520465 C34.9053302,1.24531276 33.2149367,-3.55271368e-15 31.2305136,-3.55271368e-15 C29.2460916,-3.55271368e-15 27.5348488,1.24531276 26.435442,2.92520465 C23.4108204,8.05415306 24.9681857,14.9292743 28.4785589,19.0360126 C26.9013592,19.8988654 25.0973981,20.3878164 23.1622842,20.3878164 C21.2271692,20.3878164 19.4232081,19.8988654 17.8460084,19.0360126 C21.4568519,14.4160071 23.0250333,7.8560346 19.8891253,2.92520465 C18.7897186,1.24531276 17.099324,-3.55271368e-15 15.114902,-3.55271368e-15 C13.1304789,-3.55271368e-15 11.4192371,1.24531276 10.3198293,2.92520465 C7.29520775,8.05415306 8.8525741,14.9292743 12.3629473,19.0360126 C10.7857465,19.8988654 8.9817854,20.3878164 7.0466715,20.3878164 C5.11155653,20.3878164 3.30759541,19.8988654 1.7303957,19.0360126 L0,22.1385061 C2.09077748,23.3262773 4.50203891,24 7.0466715,24 C10.0128186,24 12.7831657,23.0735944 15.0940537,21.4958466 C17.4070834,23.0799225 20.189646,24 23.1622842,24 C26.1284302,24 28.8987784,23.0735944 31.2096653,21.4958466 C33.522695,23.0799225 36.3052587,24 39.2778958,24 C42.2440429,24 45.01439,23.0735944 47.325278,21.4958466 C49.6383077,23.0799225 52.4208703,24 55.3935085,24 C58.3596545,24 61.1300027,23.0735944 63.4408907,21.4958466 C65.7539204,23.0799225 68.536483,24 71.5091212,24 L73.468846,24 C81.1160318,24 87.4639524,17.8949801 87.9677786,10.1270522 C87.989144,9.79764286 88,9.46524313 88,9.13019176 L88,7.33518265 C88,7.33518265 84.6225978,6.80423243 84.6225978,7.62326459 Z" id="Shape"></path>
                    </g>
                </g>
            </g>
        </g>
    </g>
</svg>
