<?xml version="1.0" encoding="UTF-8"?>
<svg width="48px" height="48px" viewBox="0 0 48 48" version="1.1" xmlns="http://www.w3.org/2000/svg" xmlns:xlink="http://www.w3.org/1999/xlink">
    <!-- Generator: Sketch 46.2 (44496) - http://www.bohemiancoding.com/sketch -->
    <title>fb</title>
    <desc>Created with Sketch.</desc>
    <defs></defs>
    <g id="Symbols" stroke="none" stroke-width="1" fill="none" fill-rule="evenodd">
        <g id="footer" transform="translate(-787.000000, -146.000000)">
            <g id="Group-+-150-Court-St.-2nd-Fl-+-Contact-Us-Mask">
                <g>
                    <g id="Group-2" transform="translate(787.000000, 145.000000)">
                        <g id="fb" transform="translate(0.000000, 0.908772)">
                            <circle id="Oval" fill="#46AF97" cx="24" cy="24.0912278" r="24"></circle>
                            <g id="Group" transform="translate(17.000000, 12.000000)" fill="#FDFFF9">
                                <path d="M14.8181141,1.81500242 C14.7841815,1.61856896 14.6411538,1.45406461 14.4452205,1.38569466 C13.2495525,0.970616178 11.6693151,0.559355307 9.97341505,0.55831414 C8.64311133,0.557967085 7.23363154,0.816176442 5.92339548,1.54291084 L5.92339548,1.54291084 C5.26371662,1.90766626 4.74378167,2.36890314 4.34790138,2.8880983 C3.75207418,3.6679322 3.43500508,4.56541795 3.25622043,5.47643887 C3.11209811,6.21323788 3.05773298,6.96391912 3.02854365,7.69169468 C2.68702849,7.69932991 2.299905,7.7017593 1.94744383,7.7017593 C1.63913153,7.7017593 1.35708963,7.70002402 1.15166972,7.69794168 C1.0491422,7.69690052 0.966317472,7.69620641 0.908668544,7.6955123 C0.851019617,7.69447113 0.82037082,7.69412407 0.819641087,7.69412407 C0.664937637,7.69204174 0.513153119,7.75034708 0.402598531,7.85342259 C0.292408809,7.95719221 0.229651749,8.10122028 0.230746349,8.2487189 L0.253732947,11.9136259 C0.255922146,12.2190348 0.515707186,12.4876558 0.836060085,12.4876558 L1.24069718,12.4876558 C1.80806478,12.4876558 2.86690774,12.4644031 3.68092519,12.4796736 C3.80133117,14.9972148 3.82979077,18.7700561 3.82979077,21.69747 C3.82979077,22.9315996 3.82431777,24.0071249 3.81993937,24.781753 C3.81702044,25.1680258 3.81483124,25.47517 3.81264204,25.6882622 C3.8108177,25.9010072 3.8097231,26.0148415 3.8097231,26.0155356 C3.80826364,26.1626872 3.8688315,26.3046329 3.97865635,26.4094437 C4.08811634,26.5135604 4.23771166,26.5718657 4.39277998,26.5711716 L9.5498049,26.5465306 C9.70487322,26.5458365 9.85081987,26.4868371 9.95955012,26.3816792 C10.0686452,26.2768684 10.1281185,26.137005 10.126659,25.9891594 C10.126659,25.9891594 10.0996589,22.9728993 10.0679155,19.7192531 C10.0409154,16.921291 10.0109963,13.9518834 9.99384759,12.5688669 C10.3120113,12.563661 10.6827158,12.5615787 11.043204,12.5619257 C11.464625,12.5619257 11.8747351,12.5643551 12.1790338,12.5667845 C12.3308183,12.5678257 12.4566973,12.5692139 12.5439005,12.5702551 C12.6318333,12.5712962 12.6807254,12.5716433 12.6807254,12.5716433 C12.8357938,12.5737256 12.9850242,12.5164615 13.0955788,12.4130389 C13.2061334,12.3096163 13.2685256,12.1687118 13.2688904,12.0212131 L13.275458,8.62666244 C13.2758229,8.47916381 13.2148902,8.29001852 13.1050653,8.1862489 C12.9956053,8.08247928 12.8481992,7.97628027 12.692766,7.97628027 L12.5001165,7.97628027 C12.3767915,7.97628027 12.2012907,8.02625627 11.9907626,8.02625627 C11.3438541,8.02625627 10.3652818,8.04812077 9.59103483,8.03562677 C9.60489976,7.65907146 9.64065669,7.33873915 9.69903535,7.05484768 C9.75522481,6.77859143 9.83257654,6.55474058 9.92379319,6.37045406 C9.99238812,6.23232594 10.0686452,6.12335048 10.1503754,6.03207486 C10.27443,5.89533496 10.4087009,5.80301818 10.5816477,5.73430117 C10.7542296,5.66627828 10.9713253,5.62567277 11.2493537,5.62532572 C11.7430182,5.62393749 12.4209404,5.76275973 13.269985,6.0747627 C13.2761878,6.07719209 13.2831202,6.0778862 13.2896878,6.08031559 C13.2966203,6.08239792 13.3020933,6.08621554 13.3090258,6.08795081 C13.3214312,6.09176843 13.3338367,6.09211548 13.3462422,6.09489193 C13.365945,6.09940365 13.3852829,6.10356832 13.4046208,6.1059977 C13.4235939,6.10808004 13.4422021,6.10877415 13.4604454,6.10946826 C13.4797834,6.10981532 13.4983915,6.11016237 13.5177295,6.10912121 C13.5367025,6.10773298 13.5549459,6.10530359 13.5728243,6.10218009 C13.5914325,6.09940365 13.6100407,6.09593309 13.6279192,6.09142137 C13.6454328,6.08690965 13.6629464,6.0810097 13.6797303,6.0747627 C13.6976087,6.06886276 13.7151223,6.0622687 13.7319062,6.05428642 C13.7483252,6.0466512 13.7636496,6.03797481 13.7793389,6.02895136 C13.795393,6.01958086 13.8114471,6.00951625 13.8267715,5.99875753 C13.8413662,5.98869292 13.8545014,5.97724008 13.8676366,5.96544019 C13.8822312,5.95294619 13.8960962,5.94045219 13.9085016,5.92691702 C13.9209071,5.91372891 13.9318531,5.89984669 13.943164,5.88561741 C13.9544748,5.87104107 13.9657857,5.85611768 13.9756371,5.84015312 C13.9851236,5.82488268 13.9935156,5.80787696 14.0019075,5.79087123 C14.0073805,5.77976545 14.014313,5.76970084 14.0190562,5.75790095 C14.0219752,5.75165395 14.0227049,5.74505989 14.025259,5.73811878 C14.0270833,5.73221884 14.0310968,5.727013 14.0329212,5.720766 C14.1500433,5.35358119 14.3510849,4.73825163 14.5236668,4.08891063 C14.6097753,3.76337249 14.6896811,3.4288109 14.7487895,3.10639626 C14.807533,2.78363457 14.8473035,2.47544921 14.8476683,2.18808718 C14.8469386,2.06106483 14.8389115,1.9378601 14.8181141,1.81500242 Z M9.95371226,4.79725108 C9.66656222,4.93850271 9.41626371,5.13771262 9.21595193,5.37752803 C8.91420723,5.73846584 8.72009819,6.18096171 8.59823273,6.68453937 C8.47636728,7.18915819 8.42419135,7.7611058 8.42419135,8.40593508 C8.42419135,8.47187564 8.42492108,8.53885737 8.42565082,8.60653321 C8.43075895,8.90118341 8.67777366,9.0590937 8.98754543,9.06881125 C9.81250887,9.09379926 11.1643397,9.01709997 11.9903978,9.01709997 L12.1144524,9.01709997 L12.110074,11.3815897 C11.8134375,11.3795074 11.434341,11.4176835 11.043204,11.4176835 C10.4254848,11.4176835 9.78587361,11.4430185 9.37758785,11.4621066 C9.06489715,11.47703 8.82189598,11.7338511 8.82627438,12.0316248 C8.84196364,12.9742278 8.87699084,16.4715069 8.90836937,19.7241119 C8.92405863,21.3507614 8.9386533,22.9208409 8.9495993,24.0813948 C8.95470743,24.644666 8.95908583,25.1121499 8.96200476,25.443935 L4.97474225,25.4640643 C4.98094498,24.7328181 4.98933691,23.345637 4.98933691,21.6835877 C4.98933691,18.5416935 4.95795838,14.4280436 4.81274147,11.8862085 C4.79668733,11.6002347 4.55514563,11.3749956 4.25449552,11.364931 C3.46893767,11.3385548 2.16344488,11.333696 1.41072502,11.333349 L1.39467089,8.80331373 C1.55886088,8.8043549 1.74786179,8.80539606 1.9478087,8.80539606 C2.51481144,8.80504901 3.16500377,8.79949612 3.62437086,8.77416106 C3.92502096,8.75784945 4.162914,8.52428104 4.1705762,8.23830723 C4.20195473,7.07740629 4.27127939,5.89880552 4.59564582,4.89650898 C4.75728174,4.3946666 4.97948551,3.93794145 5.28633835,3.53639814 C5.59392092,3.13520188 5.98469308,2.78606396 6.50791182,2.49592548 L6.50791182,2.49592548 C7.60725497,1.88718998 8.79744991,1.66195091 9.97414479,1.66160385 C11.3135702,1.66056269 12.6238062,1.95937755 13.6837438,2.30088024 C13.6753519,2.47336687 13.6483517,2.68611195 13.6060272,2.91690391 C13.5279457,3.34308817 13.401337,3.82827188 13.2725391,4.27250304 C13.2134307,4.47587761 13.1543223,4.66953463 13.0984977,4.8479212 C12.4143728,4.63725846 11.8050455,4.52377128 11.2493537,4.52273012 C10.7764865,4.52238306 10.3371871,4.60741168 9.95371226,4.79725108 Z" id="Shape"></path>
                            </g>
                        </g>
                    </g>
                </g>
            </g>
        </g>
    </g>
</svg>