<?xml version="1.0" encoding="UTF-8" standalone="no"?>
<svg width="136px" height="136px" viewBox="0 0 136 136" version="1.1" xmlns="http://www.w3.org/2000/svg" xmlns:xlink="http://www.w3.org/1999/xlink">
    <!-- Generator: Sketch 39.1 (31720) - http://www.bohemiancoding.com/sketch -->
    <title>family_icon</title>
    <desc>Created with Sketch.</desc>
    <defs></defs>
    <g id="Website-1024" stroke="none" stroke-width="1" fill="none" fill-rule="evenodd">
        <g id="how-it-works" transform="translate(-392.000000, -1714.000000)" stroke="#40B097">
            <g id="know-what-to-expect" transform="translate(0.000000, 534.000000)">
                <g id="graphic" transform="translate(186.000000, 211.000000)">
                    <g id="family_icon" transform="translate(208.000000, 971.000000)">
                        <circle id="Oval-5" stroke-width="4" fill="#4A4A4A" cx="66" cy="66" r="66"></circle>
                        <g id="Group" transform="translate(12.000000, 29.000000)" stroke-width="2.88">
                            <path d="M44.9676003,58.1578947 L35.6148751,58.1578947 C30.7786738,58.1578947 26.8604651,62.0984287 26.8604651,66.958674 L26.8604651,67.1052632 L53.7209302,67.1052632 L53.7209302,66.958674 C53.7209302,62.0984287 49.8038016,58.1578947 44.9676003,58.1578947 L44.9676003,58.1578947 Z" id="Shape"></path>
                            <ellipse id="Oval" cx="40.2906977" cy="46.5263158" rx="8.95348837" ry="8.94736842"></ellipse>
                            <ellipse id="Oval" cx="58.1976744" cy="12.5263158" rx="12.5348837" ry="12.5263158"></ellipse>
                            <path d="M64.9612024,27.7368421 L52.0995131,27.7368421 C47.2594142,27.7368421 43.0979337,30.6268057 41.1860465,34.7842971 C47.3726954,35.3074895 52.2512672,40.5491218 52.2512672,46.9288323 C52.2512672,50.6408012 50.594797,53.9644211 47.9957419,56.2039001 C53.232325,57.4487743 57.146938,62.1941829 57.146938,67.8554479 L57.146938,68 L77,68 L77,39.8889285 C77,33.1791214 71.6105942,27.7368421 64.9612024,27.7368421 L64.9612024,27.7368421 Z" id="Shape"></path>
                        </g>
                    </g>
                </g>
            </g>
        </g>
    </g>
</svg>