<?xml version="1.0" encoding="UTF-8" standalone="no"?>
<svg width="136px" height="136px" viewBox="0 0 136 136" version="1.1" xmlns="http://www.w3.org/2000/svg" xmlns:xlink="http://www.w3.org/1999/xlink">
    <!-- Generator: Sketch 39.1 (31720) - http://www.bohemiancoding.com/sketch -->
    <title>free_icon</title>
    <desc>Created with Sketch.</desc>
    <defs></defs>
    <g id="Website-1024" stroke="none" stroke-width="1" fill="none" fill-rule="evenodd">
        <g id="how-it-works" transform="translate(-296.000000, -1907.000000)" stroke="#F7F9F9">
            <g id="know-what-to-expect" transform="translate(0.000000, 534.000000)">
                <g id="free_icon" transform="translate(294.000000, 1375.000000)">
                    <path d="M70,132 C106.450793,132 136,102.450793 136,66 C136,29.5492065 106.450793,0 70,0 C33.5492065,0 4,29.5492065 4,66 C4,102.450793 33.5492065,132 70,132 Z" id="Oval-5" stroke-width="4" fill="#4A4A4A"></path>
                    <path d="M122.821842,69.2402183 C122.346842,69.5952183 121.897842,69.9312183 121.563842,70.2332183 C118.872842,72.6712183 117.322842,74.8282183 116.685842,77.0232183 C116.454842,77.8202183 116.300842,78.6312183 116.137842,79.4892183 C115.926842,80.6022183 115.708842,81.7522183 115.304842,82.8932183 C114.083842,86.3422183 110.820842,93.7082183 104.820842,95.7062183 L104.820842,103.668218 C104.820842,104.125218 104.450842,104.495218 103.993842,104.495218 C103.536842,104.495218 103.166842,104.125218 103.166842,103.668218 L103.166842,96.1172183 C102.685842,96.1892183 102.190842,96.2292183 101.678842,96.2292183 C101.221842,96.2292183 100.851842,95.8592183 100.851842,95.4022183 C100.851842,94.9452183 101.221842,94.5752183 101.678842,94.5752183 C104.004842,94.5752183 109.835842,93.3832183 113.745842,82.3412183 C114.106842,81.3202183 114.303842,80.2812183 114.512842,79.1812183 C114.675842,78.3232183 114.843842,77.4352183 115.096842,76.5622183 C116.050842,73.2752183 118.609842,70.6762183 120.452842,69.0072183 C120.843842,68.6532183 121.323842,68.2942183 121.830842,67.9152183 C123.992842,66.2992183 125.469842,65.0242183 124.774842,63.3242183 C124.581842,62.8532183 124.295842,62.5512183 123.873842,62.3752183 C122.983842,62.0042183 121.484842,62.2172183 119.653842,62.9762183 C115.026842,64.8932183 111.436842,69.3222183 108.155842,73.6942183 C107.882842,74.0592183 107.363842,74.1342183 106.998842,73.8592183 C106.633842,73.5852183 106.559842,73.0672183 106.833842,72.7022183 C107.458842,71.8702183 108.094842,71.0352183 108.746842,70.2152183 C107.852842,70.0432183 107.104842,69.6772183 106.530842,69.0972183 C105.369842,67.9252183 105.370842,66.3632183 105.371842,66.2972183 L105.371842,64.1342183 L105.371842,62.1162183 L105.371842,45.1132183 C105.371842,43.4772183 104.040842,42.1472183 102.405842,42.1472183 C100.769842,42.1472183 99.4398416,43.4782183 99.4398416,45.1132183 L99.4398416,67.9582183 C99.4398416,68.4152183 99.0698416,68.7852183 98.6128416,68.7852183 C98.1558416,68.7852183 97.7858416,68.4152183 97.7858416,67.9582183 L97.7858416,39.6872183 C97.7858416,37.9552183 96.3768416,36.5472183 94.6458416,36.5472183 C92.9138416,36.5472183 91.5058416,37.9562183 91.5058416,39.6872183 L91.5058416,45.8432183 L91.5058416,59.6512183 L91.5058416,67.9582183 C91.5058416,68.4152183 91.1358416,68.7852183 90.6788416,68.7852183 C90.2218416,68.7852183 89.8518416,68.4152183 89.8518416,67.9582183 L89.8518416,59.6512183 L89.8518416,45.8432183 C89.8518416,44.2272183 88.5368416,42.9122183 86.9208416,42.9122183 C85.3048416,42.9122183 83.9898416,44.2272183 83.9898416,45.8432183 L83.9898416,53.6862183 L83.9898416,66.0162183 L83.9898416,67.9592183 C83.9898416,68.4162183 83.6198416,68.7862183 83.1628416,68.7862183 C82.7058416,68.7862183 82.3358416,68.4162183 82.3358416,67.9592183 L82.3358416,66.0162183 L82.3358416,53.6862183 C82.3358416,52.1662183 81.0998416,50.9302183 79.5798416,50.9302183 C78.0598416,50.9302183 76.8238416,52.1662183 76.8238416,53.6862183 L76.8238416,70.4882183 C76.8238416,70.4902183 76.8248416,70.4922183 76.8248416,70.4942183 L76.8248416,79.8852183 C76.8238416,79.9572183 76.7458416,85.6672183 78.7108416,89.3382183 C80.0978416,91.9302183 81.7318416,93.4542183 83.8498416,94.1372183 C83.9988416,94.1852183 84.1318416,94.2292183 84.2548416,94.2702183 C85.0048416,94.5192183 85.2578416,94.6022183 86.3378416,94.5772183 C86.7948416,94.5552183 87.1738416,94.9272183 87.1838416,95.3832183 C87.1948416,95.8392183 86.8338416,96.2192183 86.3778416,96.2292183 C86.2468416,96.2322183 86.1248416,96.2342183 86.0108416,96.2342183 C85.3088416,96.2342183 84.8798416,96.1692183 84.4298416,96.0492183 L84.4298416,103.669218 C84.4298416,104.126218 84.0598416,104.496218 83.6028416,104.496218 C83.1458416,104.496218 82.7758416,104.126218 82.7758416,103.669218 L82.7758416,95.7162183 C82.7758416,95.6432183 82.7998416,95.5782183 82.8178416,95.5102183 C80.5258416,94.6192183 78.7418416,92.8992183 77.2528416,90.1182183 C75.0818416,86.0632183 75.1668416,80.1212183 75.1708416,79.8702183 L75.1708416,72.9252183 C75.1708416,72.9232183 75.1698416,72.9212183 75.1698416,72.9192183 L75.1698416,53.6862183 C75.1698416,51.2552183 77.1478416,49.2772183 79.5788416,49.2772183 C80.6268416,49.2772183 81.5778416,49.6602183 82.3348416,50.2722183 L82.3348416,45.8432183 C82.3348416,43.3152183 84.3918416,41.2592183 86.9188416,41.2592183 C88.0388416,41.2592183 89.0528416,41.6792183 89.8498416,42.3482183 L89.8498416,39.4782183 C89.8498416,39.4042183 89.8738416,39.3372183 89.8918416,39.2682183 C90.1078416,36.8242183 92.1428416,34.8932183 94.6428416,34.8932183 C97.2858416,34.8932183 99.4358416,37.0432183 99.4358416,39.6862183 L99.4358416,41.6002183 C100.240842,40.9192183 101.267842,40.4922183 102.401842,40.4922183 C104.804842,40.4922183 106.761842,42.3432183 106.978842,44.6902183 C106.997842,44.7592183 107.021842,44.8262183 107.021842,44.9012183 L107.021842,62.1152183 L107.021842,64.1332183 L107.021842,66.3032183 C107.024842,66.7002183 107.177842,68.6782183 109.927842,68.6782183 C109.950842,68.6782183 109.970842,68.6892183 109.993842,68.6912183 C112.593842,65.6252183 115.494842,62.9072183 119.017842,61.4482183 C121.323842,60.4932183 123.170842,60.2922183 124.506842,60.8492183 C125.337842,61.1952183 125.941842,61.8182183 126.301842,62.6982183 C127.539842,65.7142183 124.700842,67.8362183 122.821842,69.2402183 L122.821842,69.2402183 Z M105.946842,76.3922183 C106.270842,76.0722183 106.273842,75.5502183 105.954842,75.2252183 C105.634842,74.8992183 105.111842,74.8952183 104.785842,75.2152183 C104.705842,75.2932183 102.829842,77.1672183 102.466842,80.2022183 C102.272842,81.8182183 102.175842,84.0002183 103.146842,86.5462183 C103.272842,86.8762183 103.585842,87.0782183 103.919842,87.0782183 C104.017842,87.0782183 104.116842,87.0612183 104.213842,87.0242183 C104.640842,86.8612183 104.854842,86.3842183 104.691842,85.9572183 C103.854842,83.7612183 103.926842,81.9142183 104.108842,80.3982183 C104.400842,77.9602183 105.931842,76.4082183 105.946842,76.3922183 L105.946842,76.3922183 Z" id="Shape" stroke-width="2" transform="translate(100.886995, 69.694718) rotate(13.000000) translate(-100.886995, -69.694718) "></path>
                    <path d="M58.8165676,72.4468336 C58.3415676,72.8018336 57.8925676,73.1378336 57.5585676,73.4398336 C54.8675676,75.8778336 53.3175676,78.0348336 52.6805676,80.2298336 C52.4495676,81.0268336 52.2955676,81.8378336 52.1325676,82.6958336 C51.9215676,83.8088336 51.7035676,84.9588336 51.2995676,86.0998336 C50.0785676,89.5488336 46.8155676,96.9148336 40.8155676,98.9128336 L40.8155676,106.874834 C40.8155676,107.331834 40.4455676,107.701834 39.9885676,107.701834 C39.5315676,107.701834 39.1615676,107.331834 39.1615676,106.874834 L39.1615676,99.3238336 C38.6805676,99.3958336 38.1855676,99.4358336 37.6735676,99.4358336 C37.2165676,99.4358336 36.8465676,99.0658336 36.8465676,98.6088336 C36.8465676,98.1518336 37.2165676,97.7818336 37.6735676,97.7818336 C39.9995676,97.7818336 45.8305676,96.5898336 49.7405676,85.5478336 C50.1015676,84.5268336 50.2985676,83.4878336 50.5075676,82.3878336 C50.6705676,81.5298336 50.8385676,80.6418336 51.0915676,79.7688336 C52.0455676,76.4818336 54.6045676,73.8828336 56.4475676,72.2138336 C56.8385676,71.8598336 57.3185676,71.5008336 57.8255676,71.1218336 C59.9875676,69.5058336 61.4645676,68.2308336 60.7695676,66.5308336 C60.5765676,66.0598336 60.2905676,65.7578336 59.8685676,65.5818336 C58.9785676,65.2108336 57.4795676,65.4238336 55.6485676,66.1828336 C51.0215676,68.0998336 47.4315676,72.5288336 44.1505676,76.9008336 C43.8775676,77.2658336 43.3585676,77.3408336 42.9935676,77.0658336 C42.6285676,76.7918336 42.5545676,76.2738336 42.8285676,75.9088336 C43.4535676,75.0768336 44.0895676,74.2418336 44.7415676,73.4218336 C43.8475676,73.2498336 43.0995676,72.8838336 42.5255676,72.3038336 C41.3645676,71.1318336 41.3655676,69.5698336 41.3665676,69.5038336 L41.3665676,67.3408336 L41.3665676,65.3228336 L41.3665676,48.3198336 C41.3665676,46.6838336 40.0355676,45.3538336 38.4005676,45.3538336 C36.7645676,45.3538336 35.4345676,46.6848336 35.4345676,48.3198336 L35.4345676,71.1648336 C35.4345676,71.6218336 35.0645676,71.9918336 34.6075676,71.9918336 C34.1505676,71.9918336 33.7805676,71.6218336 33.7805676,71.1648336 L33.7805676,42.8938336 C33.7805676,41.1618336 32.3715676,39.7538336 30.6405676,39.7538336 C28.9085676,39.7538336 27.5005676,41.1628336 27.5005676,42.8938336 L27.5005676,49.0498336 L27.5005676,62.8578336 L27.5005676,71.1648336 C27.5005676,71.6218336 27.1305676,71.9918336 26.6735676,71.9918336 C26.2165676,71.9918336 25.8465676,71.6218336 25.8465676,71.1648336 L25.8465676,62.8578336 L25.8465676,49.0498336 C25.8465676,47.4338336 24.5315676,46.1188336 22.9155676,46.1188336 C21.2995676,46.1188336 19.9845676,47.4338336 19.9845676,49.0498336 L19.9845676,56.8928336 L19.9845676,69.2228336 L19.9845676,71.1658336 C19.9845676,71.6228336 19.6145676,71.9928336 19.1575676,71.9928336 C18.7005676,71.9928336 18.3305676,71.6228336 18.3305676,71.1658336 L18.3305676,69.2228336 L18.3305676,56.8928336 C18.3305676,55.3728336 17.0945676,54.1368336 15.5745676,54.1368336 C14.0545676,54.1368336 12.8185676,55.3728336 12.8185676,56.8928336 L12.8185676,73.6948336 C12.8185676,73.6968336 12.8195676,73.6988336 12.8195676,73.7008336 L12.8195676,83.0918336 C12.8185676,83.1638336 12.7405676,88.8738336 14.7055676,92.5448336 C16.0925676,95.1368336 17.7265676,96.6608336 19.8445676,97.3438336 C19.9935676,97.3918336 20.1265676,97.4358336 20.2495676,97.4768336 C20.9995676,97.7258336 21.2525676,97.8088336 22.3325676,97.7838336 C22.7895676,97.7618336 23.1685676,98.1338336 23.1785676,98.5898336 C23.1895676,99.0458336 22.8285676,99.4258336 22.3725676,99.4358336 C22.2415676,99.4388336 22.1195676,99.4408336 22.0055676,99.4408336 C21.3035676,99.4408336 20.8745676,99.3758336 20.4245676,99.2558336 L20.4245676,106.875834 C20.4245676,107.332834 20.0545676,107.702834 19.5975676,107.702834 C19.1405676,107.702834 18.7705676,107.332834 18.7705676,106.875834 L18.7705676,98.9228336 C18.7705676,98.8498336 18.7945676,98.7848336 18.8125676,98.7168336 C16.5205676,97.8258336 14.7365676,96.1058336 13.2475676,93.3248336 C11.0765676,89.2698336 11.1615676,83.3278336 11.1655676,83.0768336 L11.1655676,76.1318336 C11.1655676,76.1298336 11.1645676,76.1278336 11.1645676,76.1258336 L11.1645676,56.8928336 C11.1645676,54.4618336 13.1425676,52.4838336 15.5735676,52.4838336 C16.6215676,52.4838336 17.5725676,52.8668336 18.3295676,53.4788336 L18.3295676,49.0498336 C18.3295676,46.5218336 20.3865676,44.4658336 22.9135676,44.4658336 C24.0335676,44.4658336 25.0475676,44.8858336 25.8445676,45.5548336 L25.8445676,42.6848336 C25.8445676,42.6108336 25.8685676,42.5438336 25.8865676,42.4748336 C26.1025676,40.0308336 28.1375676,38.0998336 30.6375676,38.0998336 C33.2805676,38.0998336 35.4305676,40.2498336 35.4305676,42.8928336 L35.4305676,44.8068336 C36.2355676,44.1258336 37.2625676,43.6988336 38.3965676,43.6988336 C40.7995676,43.6988336 42.7565676,45.5498336 42.9735676,47.8968336 C42.9925676,47.9658336 43.0165676,48.0328336 43.0165676,48.1078336 L43.0165676,65.3218336 L43.0165676,67.3398336 L43.0165676,69.5098336 C43.0195676,69.9068336 43.1725676,71.8848336 45.9225676,71.8848336 C45.9455676,71.8848336 45.9655676,71.8958336 45.9885676,71.8978336 C48.5885676,68.8318336 51.4895676,66.1138336 55.0125676,64.6548336 C57.3185676,63.6998336 59.1655676,63.4988336 60.5015676,64.0558336 C61.3325676,64.4018336 61.9365676,65.0248336 62.2965676,65.9048336 C63.5345676,68.9208336 60.6955676,71.0428336 58.8165676,72.4468336 L58.8165676,72.4468336 Z M41.9415676,79.5988336 C42.2655676,79.2788336 42.2685676,78.7568336 41.9495676,78.4318336 C41.6295676,78.1058336 41.1065676,78.1018336 40.7805676,78.4218336 C40.7005676,78.4998336 38.8245676,80.3738336 38.4615676,83.4088336 C38.2675676,85.0248336 38.1705676,87.2068336 39.1415676,89.7528336 C39.2675676,90.0828336 39.5805676,90.2848336 39.9145676,90.2848336 C40.0125676,90.2848336 40.1115676,90.2678336 40.2085676,90.2308336 C40.6355676,90.0678336 40.8495676,89.5908336 40.6865676,89.1638336 C39.8495676,86.9678336 39.9215676,85.1208336 40.1035676,83.6048336 C40.3955676,81.1668336 41.9265676,79.6148336 41.9415676,79.5988336 L41.9415676,79.5988336 Z" id="Shape" stroke-width="2" transform="translate(36.881721, 72.901334) scale(-1, 1) rotate(22.000000) translate(-36.881721, -72.901334) "></path>
                </g>
            </g>
        </g>
    </g>
</svg>