<?xml version="1.0" encoding="UTF-8" standalone="no"?>
<svg width="157px" height="165px" viewBox="0 0 157 165" version="1.1" xmlns="http://www.w3.org/2000/svg" xmlns:xlink="http://www.w3.org/1999/xlink">
    <!-- Generator: Sketch 39.1 (31720) - http://www.bohemiancoding.com/sketch -->
    <title>handcuffs_img</title>
    <desc>Created with Sketch.</desc>
    <defs></defs>
    <g id="Website-1024" stroke="none" stroke-width="1" fill="none" fill-rule="evenodd">
        <g id="home" transform="translate(-867.000000, -228.000000)" fill="#4A4A4A">
            <g id="handcuffs_img" transform="translate(867.000000, 228.000000)">
                <g id="Group">
                    <path d="M190.691969,38.1921921 C187.370536,27.8357458 179.961848,19.3179733 169.825455,14.2044779 C163.578408,11.0510209 156.548329,9.38630308 149.498889,9.38630308 C145.428844,9.38630308 141.45345,9.92839831 137.656605,10.9458383 C137.364044,10.4603798 136.935957,10.0396492 136.374498,9.75848787 L117.74737,0.360821927 C117.353703,0.162593072 116.938523,0.0493194405 116.523344,0.0129100589 C115.271354,-0.0963180859 114.012909,0.49230025 113.38046,1.5987409 L101.579049,22.2792696 L91.5889362,17.2365703 C91.9503357,15.5536478 91.9223702,13.8120657 91.3802711,12.1230749 C90.5176451,9.42878069 88.5880304,7.21387664 85.9528264,5.88493421 C84.3265291,5.06370038 82.4980201,4.63083329 80.6609065,4.63083329 C76.5241739,4.63083329 72.7402361,6.75875937 70.7848071,10.1852867 C69.8490408,11.8237089 69.4768854,13.5895639 69.5091532,15.3271005 C68.0484973,14.6676861 66.4308047,14.2692057 64.7055527,14.2692057 C58.5273438,14.2692057 53.502171,18.9943343 53.502171,24.8036534 C53.502171,25.1738155 53.5796138,25.5217274 53.6183351,25.8817757 C53.2354238,25.8453663 52.8632685,25.7725475 52.4717525,25.7725475 C46.2935435,25.7725475 41.2683707,30.4976762 41.2683707,36.3069953 C41.2683707,37.5186186 41.5308156,38.6634914 41.9330875,39.7456591 C36.8111114,40.7145532 32.941126,44.9724281 32.941126,50.0697415 C32.941126,54.8150976 36.3184895,58.7918112 40.9177273,60.1025489 L40.9177273,70.768475 L15.9489002,70.768475 C14.1655662,70.768475 12.7221197,72.1257358 12.7221197,73.8025901 L12.7221197,93.6780669 C12.7221197,93.8965232 12.7500851,94.1089113 12.7974113,94.3132084 C4.89395035,101.821632 0,112.131555 0,123.499373 C0,146.380647 19.7995248,165 44.135903,165 C68.4722811,165 88.2718059,146.38267 88.2718059,123.499373 C88.2718059,112.131555 83.3778556,101.821632 75.4765459,94.3172539 C75.5217208,94.110934 75.5496862,93.9005687 75.5496862,93.6821124 L75.5496862,73.8066356 C75.5496862,72.1297813 74.1062398,70.7725204 72.3229058,70.7725204 L47.3626834,70.7725204 L47.3626834,60.1065944 C51.95977,58.7938339 55.3371335,54.8191431 55.3371335,50.073787 C55.3371335,48.8621637 55.0746887,47.7152682 54.6724167,46.6310777 C59.7943929,45.6642063 63.6665294,41.4063314 63.6665294,36.309018 C63.6665294,35.938856 63.5890867,35.5889214 63.5503653,35.2268503 C63.9354278,35.2652824 64.3075831,35.3360784 64.7012504,35.3360784 C70.8773081,35.3360784 75.9024809,30.6109498 75.9024809,24.8036534 C75.9024809,24.7611758 75.8895738,24.7186982 75.8895738,24.6762206 C77.3803463,25.335635 79.0066437,25.7017515 80.6479993,25.7017515 C83.6725682,25.7017515 86.5013791,24.554856 88.5708209,22.6029086 L98.5265142,27.6274033 L86.7251025,48.3059093 C85.8818372,49.782512 86.4712625,51.6232085 88.0416289,52.4141011 L88.0437801,52.4141011 L106.668757,61.8117671 C107.154925,62.056519 107.677664,62.1738382 108.191797,62.1738382 C108.286449,62.1738382 108.376799,62.1455197 108.4693,62.1394515 C111.745558,71.8283925 118.844475,80.3866199 129.103486,85.5607976 C135.350533,88.7142546 142.378461,90.3789724 149.430051,90.3809952 L149.432203,90.3809952 C165.34023,90.3809952 179.888708,82.198998 187.402804,69.0289156 C192.845307,59.4977486 194.01125,48.5466157 190.691969,38.1921921 L190.691969,38.1921921 Z M44.135903,154.88426 C25.7303473,154.88426 10.7559348,140.803943 10.7559348,123.499373 C10.7559348,106.190758 25.7303473,92.1104408 44.135903,92.1104408 C62.5414587,92.1104408 77.5158711,106.190758 77.5158711,123.499373 C77.5158711,140.803943 62.5414587,154.88426 44.135903,154.88426 L44.135903,154.88426 Z M44.135903,54.5339362 C41.5179084,54.5339362 39.3860822,52.5314203 39.3860822,50.0697415 C39.3860822,47.60604 41.5157572,45.603524 44.135903,45.603524 C46.7538975,45.603524 48.8835726,47.6080628 48.8835726,50.0697415 C48.8835726,52.5314203 46.7538975,54.5339362 44.135903,54.5339362 L44.135903,54.5339362 Z M52.4652989,40.77119 C49.8473044,40.77119 47.7154781,38.768674 47.7154781,36.3069953 C47.7154781,33.8432938 49.8473044,31.8407778 52.4652989,31.8407778 C55.0832934,31.8407778 57.2129685,33.8453165 57.2129685,36.3069953 C57.2129685,38.768674 55.0811423,40.77119 52.4652989,40.77119 L52.4652989,40.77119 Z M64.7012504,29.2658254 C62.0811046,29.2658254 59.9514295,27.2633094 59.9514295,24.8016307 C59.9514295,22.3379292 62.0832558,20.3354132 64.7012504,20.3354132 C67.3192449,20.3354132 69.44892,22.3399519 69.44892,24.8016307 C69.44892,27.2633094 67.3170937,29.2658254 64.7012504,29.2658254 L64.7012504,29.2658254 Z M78.4086137,19.0974942 C76.1003901,17.932394 75.2291594,15.2198951 76.4682431,13.0515142 C77.29645,11.5991844 78.9033867,10.6970408 80.6587553,10.6970408 C81.4460897,10.6970408 82.1990051,10.877065 82.9002921,11.2310451 C84.0189093,11.7953905 84.8342092,12.7339434 85.199911,13.8747707 C85.5656127,15.015598 85.4365415,16.2231758 84.8385115,17.2750024 C83.635998,19.3766328 80.678116,20.242367 78.4086137,19.0974942 L78.4086137,19.0974942 Z M179.822021,65.1998623 C173.809453,75.7383555 162.165078,82.2879987 149.432203,82.2879987 L149.430051,82.2879987 C143.793942,82.2879987 138.17289,80.9529881 133.169229,78.4286043 C116.430843,69.9836505 110.11711,50.3043798 119.096164,34.5633904 C125.113034,24.0248972 136.761711,17.4772768 149.496738,17.4772768 C155.132848,17.4772768 160.7539,18.8122874 165.75756,21.3346485 C173.867535,25.4266584 179.794055,32.2433037 182.452922,40.5284608 C185.11179,48.8136179 184.173872,57.5761424 179.822021,65.1998623 L179.822021,65.1998623 Z" id="Shape"></path>
                </g>
            </g>
        </g>
    </g>
</svg>