<?xml version="1.0" encoding="UTF-8"?>
<svg width="48px" height="48px" viewBox="0 0 48 48" version="1.1" xmlns="http://www.w3.org/2000/svg" xmlns:xlink="http://www.w3.org/1999/xlink">
    <!-- Generator: Sketch 46.2 (44496) - http://www.bohemiancoding.com/sketch -->
    <title>instagram</title>
    <desc>Created with Sketch.</desc>
    <defs></defs>
    <g id="Symbols" stroke="none" stroke-width="1" fill="none" fill-rule="evenodd">
        <g id="footer" transform="translate(-902.000000, -146.000000)">
            <g id="Group-+-150-Court-St.-2nd-Fl-+-Contact-Us-Mask">
                <g>
                    <g id="Group-2" transform="translate(787.000000, 145.000000)">
                        <g id="instagram" transform="translate(115.000000, 1.000000)">
                            <circle id="Oval" fill="#46AF97" cx="24" cy="24" r="24"></circle>
                            <path d="M23.8918842,14.3167732 C27.3330964,14.3167732 27.7406743,14.3298165 29.0996426,14.3915686 C30.3561921,14.4486842 31.0385922,14.6577853 31.4927753,14.8335138 C32.0942943,15.0663579 32.5236657,15.344548 32.9746258,15.7936772 C33.425586,16.2428064 33.7049101,16.6704345 33.9386523,17.2695113 C34.1151483,17.7218504 34.3251018,18.40148 34.3824503,19.6528768 C34.4444541,21.0063786 34.4575506,21.4123018 34.4575506,24.8395425 C34.4575506,28.2667832 34.4444541,28.6727064 34.3824503,30.0261572 C34.3251018,31.277605 34.1151483,31.9572346 33.9386523,32.4095737 C33.7049101,33.0086504 33.425586,33.4362785 32.9746258,33.8854078 C32.5236657,34.334537 32.0942943,34.6127271 31.4927753,34.8455202 C31.0385922,35.0212997 30.3561921,35.2304008 29.0996426,35.2875164 C27.7408789,35.3492685 27.333301,35.3623118 23.8918842,35.3623118 C20.4504673,35.3623118 20.0428894,35.3492685 18.6841257,35.2875164 C17.4275763,35.2304008 16.7451761,35.0212997 16.2910441,34.8455202 C15.689474,34.6127271 15.2601027,34.334537 14.8091425,33.8854078 C14.3581823,33.4362785 14.0788582,33.0086504 13.8451161,32.4095737 C13.66862,31.9572346 13.4586665,31.277605 13.4013181,30.0262081 C13.3393142,28.6727064 13.3262177,28.2667832 13.3262177,24.8395425 C13.3262177,21.4123018 13.3393142,21.0063786 13.4013181,19.6529278 C13.4586665,18.40148 13.66862,17.7218504 13.8451161,17.2695113 C14.0788582,16.6704345 14.3581823,16.2428064 14.8091425,15.7936772 C15.2601027,15.344548 15.689474,15.0663579 16.2910441,14.8335138 C16.7451761,14.6577853 17.4275763,14.4486842 18.6840745,14.3915686 C20.043094,14.3298165 20.4506719,14.3167732 23.8918842,14.3167732 M23.8918842,12.0040251 C20.3917376,12.0040251 19.952902,12.0188008 18.5782792,12.0812662 C17.2064702,12.1436296 16.26966,12.3605772 15.4498487,12.6778973 C14.6023608,13.005917 13.8836382,13.4448052 13.1671667,14.1583679 C12.4506951,14.8719305 12.0100177,15.587735 11.6806608,16.4317821 C11.3620471,17.2482649 11.1442152,18.1812716 11.0815974,19.5475111 C11.0188774,20.9165018 11.0040927,21.3536067 11.0040927,24.8395425 C11.0040927,28.3254783 11.0188774,28.7625832 11.0815974,30.1315739 C11.1442152,31.4978133 11.3620471,32.4308201 11.6806608,33.2473029 C12.0100177,34.091299 12.4506951,34.8071545 13.1671667,35.5207171 C13.8836382,36.2342798 14.6023608,36.673168 15.4498487,37.0011877 C16.26966,37.3185078 17.2064702,37.5354553 18.5782792,37.5978188 C19.952902,37.6602842 20.3917376,37.6750089 23.8918842,37.6750089 C27.3920307,37.6750089 27.8309175,37.6602842 29.2054891,37.5978188 C30.5772981,37.5354553 31.5141083,37.3185078 32.3339196,37.0011877 C33.1814075,36.673168 33.9001301,36.2342798 34.6166017,35.5207171 C35.3330732,34.8071545 35.7737506,34.09135 36.1031075,33.2473029 C36.4217212,32.4308201 36.6395531,31.4978133 36.7021709,30.1315739 C36.7648909,28.7625832 36.7797268,28.3254783 36.7797268,24.8395425 C36.7797268,21.3536067 36.7648909,20.9165018 36.7021709,19.5475111 C36.6395531,18.1812716 36.4217212,17.2482649 36.1031075,16.4317821 C35.7737506,15.587735 35.3330732,14.8719305 34.6166017,14.1583679 C33.9001301,13.4448052 33.1814075,13.005917 32.3339196,12.6778973 C31.5141083,12.3605772 30.5772981,12.1436296 29.2054891,12.0812662 C27.8309175,12.0188008 27.3920307,12.0040251 23.8918842,12.0040251" id="Fill-1" fill="#FDFFF9"></path>
                            <path d="M23.8918842,18.2483226 C20.2368304,18.2483226 17.2737945,21.1993284 17.2737945,24.8395425 C17.2737945,28.4797566 20.2368304,31.4307624 23.8918842,31.4307624 C27.5469379,31.4307624 30.5099738,28.4797566 30.5099738,24.8395425 C30.5099738,21.1993284 27.5469379,18.2483226 23.8918842,18.2483226 Z M23.8918842,29.1180653 C21.519317,29.1180653 19.5959196,27.2024769 19.5959196,24.8395425 C19.5959196,22.4766081 21.519317,20.5610197 23.8918842,20.5610197 C26.2644513,20.5610197 28.1878488,22.4766081 28.1878488,24.8395425 C28.1878488,27.2024769 26.2644513,29.1180653 23.8918842,29.1180653 L23.8918842,29.1180653 Z" id="Fill-2" fill="#FDFFF9"></path>
                            <path d="M32.3179582,17.9879143 C32.3179582,18.8385849 31.6255822,19.5282008 30.7714437,19.5282008 C29.9173053,19.5282008 29.2248781,18.8385849 29.2248781,17.9879143 C29.2248781,17.1372436 29.9173053,16.4476787 30.7714437,16.4476787 C31.6255822,16.4476787 32.3179582,17.1372436 32.3179582,17.9879143" id="Fill-3" fill="#FDFFF9"></path>
                        </g>
                    </g>
                </g>
            </g>
        </g>
    </g>
</svg>