<?xml version="1.0" encoding="UTF-8" standalone="no"?>
<svg width="136px" height="136px" viewBox="0 0 136 136" version="1.1" xmlns="http://www.w3.org/2000/svg" xmlns:xlink="http://www.w3.org/1999/xlink">
    <!-- Generator: Sketch 39.1 (31720) - http://www.bohemiancoding.com/sketch -->
    <title>lawyer_icon</title>
    <desc>Created with Sketch.</desc>
    <defs></defs>
    <g id="Website-1024" stroke="none" stroke-width="1" fill="none" fill-rule="evenodd">
        <g id="how-it-works" transform="translate(-184.000000, -1713.000000)">
            <g id="know-what-to-expect" transform="translate(0.000000, 534.000000)">
                <g id="graphic" transform="translate(186.000000, 211.000000)">
                    <g id="lawyer_icon" transform="translate(0.000000, 970.000000)">
                        <circle id="Oval-5" stroke="#40B097" stroke-width="4" fill="#4A4A4A" cx="66" cy="66" r="66"></circle>
                        <g id="Group" transform="translate(13.000000, 25.000000)">
                            <g>
                                <ellipse id="Oval" stroke="#40B097" stroke-width="2.43" cx="57.75" cy="11.7619048" rx="11.75" ry="11.7619048"></ellipse>
                                <path d="M92.8251748,47.9801587 L84.9370629,47.9801587 L84.9370629,39.9880952 C84.9370629,33.3666706 79.6441399,28 73.1048951,28 L69.1608392,28 L61.2727273,43.984127 L58.642042,33.3267103 L61.2727273,28 L53.3846154,28 L56.0153007,33.3267103 L53.3846154,43.984127 L45.4965035,28 L13.9440559,28 C11.762993,28 10,29.7862262 10,31.9960317 C10,34.2058373 11.762993,35.9920635 13.9440559,35.9920635 L41.5524476,35.9920635 L41.5524476,67.9603175 L65.2167832,67.9603175 L65.2167832,71.9563492 C65.2167832,74.1661548 66.9797762,75.952381 69.1608392,75.952381 L92.8251748,75.952381 C95.0062378,75.952381 96.7692308,74.1661548 96.7692308,71.9563492 L96.7692308,51.9761905 C96.7692308,49.7663849 95.0062378,47.9801587 92.8251748,47.9801587 L92.8251748,47.9801587 Z M73.1048951,41.9861111 C73.1048951,40.8832063 73.9923077,39.9880952 75.0769231,39.9880952 C76.1694266,39.9880952 77.048951,40.8832063 77.048951,41.9861111 L77.048951,47.9801587 L73.1048951,47.9801587 L73.1048951,41.9861111 L73.1048951,41.9861111 Z M92.8251748,71.9563492 L69.1608392,71.9563492 L69.1608392,51.9761905 L77.048951,51.9761905 L77.048951,63.9642857 C77.048951,66.1740913 78.8119441,67.9603175 80.993007,67.9603175 C83.1740699,67.9603175 84.9370629,66.1740913 84.9370629,63.9642857 L84.9370629,51.9761905 L92.8251748,51.9761905 L92.8251748,71.9563492 L92.8251748,71.9563492 Z" id="Shape" stroke="#40B097" stroke-width="2.43"></path>
                                <path d="M33.5448718,58.4444444 L25.1089744,58.4444444 L27.2179487,50 L23,58.4444444 C23,60.7793333 24.889641,62.6666667 27.2179487,62.6666667 L31.4358974,62.6666667 C33.7642051,62.6666667 35.6538462,60.7793333 35.6538462,58.4444444 L31.4358974,50 L33.5448718,58.4444444 L33.5448718,58.4444444 Z" id="Shape" fill="#40B097"></path>
                                <path d="M33.0192308,47.0102041 C33.0192308,45.9043265 32.1226154,45.0068027 31.0178571,45.0068027 C29.9130989,45.0068027 29.0164835,45.9043265 29.0164835,47.0102041 L21.010989,45.0068027 L21.010989,43.0034014 C21.010989,41.8975238 20.1143736,41 19.0096154,41 C17.9048571,41 17.0082418,41.8975238 17.0082418,43.0034014 L17.0082418,45.0068027 L9.00274725,47.0102041 C9.00274725,45.9043265 8.10613187,45.0068027 7.00137363,45.0068027 C5.89661538,45.0068027 5,45.9043265 5,47.0102041 L5,49.0136054 L9.00274725,49.0136054 L17.0082418,49.0136054 L17.0082418,65.0408163 L13.0054945,65.0408163 C10.795978,65.0408163 9.00274725,66.8318571 9.00274725,69.047619 L29.0164835,69.047619 C29.0164835,66.8318571 27.2232527,65.0408163 25.0137363,65.0408163 L21.010989,65.0408163 L21.010989,49.0136054 L29.0164835,49.0136054 L33.0192308,49.0136054 L33.0192308,47.0102041 L33.0192308,47.0102041 Z" id="Shape" fill="#40B097"></path>
                                <path d="M2.10897436,58.4444444 L4.21794872,50 L0,58.4444444 C0,60.7793333 1.88964103,62.6666667 4.21794872,62.6666667 L8.43589744,62.6666667 C10.7642051,62.6666667 12.6538462,60.7793333 12.6538462,58.4444444 L8.43589744,50 L10.5448718,58.4444444 L2.10897436,58.4444444 L2.10897436,58.4444444 Z" id="Shape" fill="#40B097"></path>
                            </g>
                        </g>
                    </g>
                </g>
            </g>
        </g>
    </g>
</svg>