<?xml version="1.0" encoding="UTF-8" standalone="no"?>
<svg width="144px" height="23px" viewBox="0 0 144 23" version="1.1" xmlns="http://www.w3.org/2000/svg" xmlns:xlink="http://www.w3.org/1999/xlink">
    <!-- Generator: Sketch 39.1 (31720) - http://www.bohemiancoding.com/sketch -->
    <title>logo</title>
    <desc>Created with Sketch.</desc>
    <defs></defs>
    <g id="Website-1024" stroke="none" stroke-width="1" fill="none" fill-rule="evenodd">
        <g id="home" transform="translate(-37.000000, -26.000000)" fill="#40B097">
            <g id="intro" transform="translate(-156.000000, -2.000000)">
                <g id="logo" transform="translate(193.000000, 24.000000)">
                    <path d="M27.2016,16 L28.3278,16 C29.3892,16 30.3978,15.0646 30.3978,14.0032 L30.3978,11.7826 C30.3978,10.7218 29.3886,10 28.3278,10 L25.9668,10 C25.9536,9.9448 25.9428,9.8956 25.9278,9.8338 C25.764,9.1846 25.4622,8.3308 24.9282,7.3894 C23.64,5.119 21.6354,4 19.1304,4 L7.0578,4 C4.5528,4 2.5482,5.131 1.26,7.402 C0.3144,9.0688 0.0954,10.5868 0.0864,10.6564 L0,11.2 L4.6398,11.2 L4.7658,10.8658 C4.7676,10.8592 4.9656,10.1068 5.3472,9.4504 C5.6574,8.9176 6.1524,8.2 6.7506,8.2 L19.437,8.2 C20.0352,8.2 20.5302,8.9662 20.8398,9.499 C21.2214,10.1554 21.4194,10.7932 21.4212,10.7998 L21.5478,11.2 L26.1444,11.2 L26.1876,11.2 L28.3272,11.2 C28.7268,11.2 29.1972,11.3836 29.1972,11.7826 L29.1972,14.0032 C29.1978,14.4028 28.7268,14.8 28.3278,14.8 L27.2016,14.8 C26.1408,14.8 25.2774,15.5392 25.2774,16.6 C25.2774,17.6614 26.1402,18.4 27.2016,18.4 L28.3278,18.4 C28.7274,18.4 29.052,18.901 29.052,19.3 C29.052,19.699 28.7268,20.2 28.3278,20.2 L27.3978,20.2 L27.3978,21.4 L28.3278,21.4 C29.3892,21.4 30.252,20.3608 30.252,19.3 C30.252,18.2386 29.3892,17.2 28.3278,17.2 L27.2016,17.2 C26.802,17.2 26.4774,16.999 26.4774,16.6 C26.4774,16.201 26.802,16 27.2016,16 L27.2016,16 Z M22.4262,10 C22.3116,10 22.1292,9.2308 21.8772,8.7982 C21.0288,7.339 20.082,7 19.437,7 L6.7506,7 C6.1056,7 5.1582,7.339 4.3098,8.7982 C4.059,9.2314 3.8766,10 3.7614,10 L1.4142,10 C1.5552,9.4 1.8234,8.7418 2.3034,7.8958 C3.381,5.9968 4.9806,5.2 7.0578,5.2 L19.1304,5.2 C21.2076,5.2 22.8066,5.9962 23.8842,7.8964 C24.3642,8.7424 24.633,9.4 24.7734,10 L22.4262,10 L22.4262,10 Z" id="Shape"></path>
                    <rect id="Rectangle-path" x="0" y="12" width="4.8" height="1.2"></rect>
                    <rect id="Rectangle-path" x="22" y="12" width="4.8" height="1.2"></rect>
                    <path d="M24.6539727,18.8548 C24.2423727,17.11 22.4483727,15.7402 20.6567727,15.7402 L19.6109727,15.7402 C19.6079727,15.7078 19.5977727,15.6742 19.5947727,15.6418 C19.2857727,12.4798 16.6073727,10 13.3649727,10 C10.1231727,10 7.44717267,12.4798 7.13817267,15.6418 C7.13517267,15.6742 7.13457267,15.7072 7.13157267,15.7402 C7.13097267,15.745 7.15377267,15.7498 7.15377267,15.7546 C7.14837267,15.823 7.14837267,15.892 7.14897267,15.961 C7.14717267,15.865 7.14597267,15.784 7.15317267,15.7546 C7.15377267,15.7498 7.12977267,15.745 7.13037267,15.7402 L6.06117267,15.7402 C4.26897267,15.7402 2.47557267,17.11 2.06337267,18.8548 L1.08957267,22.951 C0.876572673,23.8516 1.04637267,24.7852 1.56777267,25.444 C2.08857267,26.1028 2.88537267,26.5402 3.81057267,26.5402 L22.9061727,26.5402 C23.8313727,26.5402 24.6281727,26.0902 25.1495727,25.432 C25.6709727,24.7738 25.8401727,23.8276 25.6277727,22.9264 L24.6539727,18.8548 L24.6539727,18.8548 Z M19.7975727,16.2658 L19.7975727,16.3534 C19.7975727,16.4344 19.7645727,16.5466 19.7243727,16.6522 C19.7573727,16.5238 19.7975727,16.3954 19.7975727,16.2658 L19.7975727,16.2658 Z M19.6853727,16.0804 C19.6961727,16.1326 19.7039727,16.1848 19.7045727,16.234 C19.7045727,16.1824 19.6931727,16.1314 19.6853727,16.0804 L19.6853727,16.0804 Z M13.3583727,11.2 C16.1459727,11.2 18.4133727,13.4674 18.4133727,16.255 C18.4133727,19.0426 16.1453727,21.31 13.3583727,21.31 C10.5713727,21.31 8.30337267,19.042 8.30337267,16.255 C8.30337267,13.468 10.5713727,11.2 13.3583727,11.2 L13.3583727,11.2 Z M24.4577727,24.142 C24.4079727,24.3508 24.3299727,24.5458 24.2087727,24.6994 C23.9201727,25.0642 23.4575727,25.3402 22.9067727,25.3402 L3.81057267,25.3402 C3.25977267,25.3402 2.79717267,25.0522 2.50857267,24.6874 C2.38677267,24.5338 2.30937267,24.3448 2.25957267,24.1426 C2.22057267,23.983 2.19597267,23.8168 2.20317267,23.6416 C2.20857267,23.5114 2.22597267,23.3782 2.25717267,23.2456 L3.23097267,19.1518 C3.51777267,17.9386 4.81317267,16.9402 6.06057267,16.9402 L7.13337267,16.9402 C7.12017267,16.9402 7.15977267,16.735 7.18257267,16.5466 C7.17537267,16.6456 7.17057267,16.744 7.18017267,16.8418 C7.47717267,20.0164 10.1315727,22.51 13.3817727,22.51 C16.5989727,22.51 19.3289727,20.0674 19.6739727,16.9402 L20.6567727,16.9402 C21.9041727,16.9402 23.1995727,17.9164 23.4863727,19.1308 L24.4601727,23.227 C24.4925727,23.3644 24.5099727,23.5036 24.5141727,23.6416 C24.5195727,23.815 24.4961727,23.9818 24.4577727,24.142 L24.4577727,24.142 Z" id="Shape"></path>
                    <ellipse id="Oval" cx="12.7728" cy="12.7728" rx="0.7728" ry="0.7728"></ellipse>
                    <ellipse id="Oval" cx="11.7728" cy="19.7728" rx="0.7728" ry="0.7728"></ellipse>
                    <ellipse id="Oval" cx="16.7728" cy="15.7728" rx="0.7728" ry="0.7728"></ellipse>
                    <ellipse id="Oval" cx="9.7728" cy="15.7728" rx="0.7728" ry="0.7728"></ellipse>
                    <ellipse id="Oval" cx="10.7728" cy="13.7728" rx="0.7728" ry="0.7728"></ellipse>
                    <ellipse id="Oval" cx="9.7728" cy="17.7728" rx="0.7728" ry="0.7728"></ellipse>
                    <ellipse id="Oval" cx="14.7728" cy="12.7728" rx="0.7728" ry="0.7728"></ellipse>
                    <text id="Good-Call" font-family="Futura-Medium, Futura" font-size="22" font-weight="400">
                        <tspan x="41" y="23">Good Call</tspan>
                    </text>
                </g>
            </g>
        </g>
    </g>
</svg>