<?xml version="1.0" encoding="UTF-8"?>
<svg width="219px" height="74px" viewBox="0 0 219 74" version="1.1" xmlns="http://www.w3.org/2000/svg" xmlns:xlink="http://www.w3.org/1999/xlink">
    <!-- Generator: Sketch 46.2 (44496) - http://www.bohemiancoding.com/sketch -->
    <title>Group</title>
    <desc>Created with Sketch.</desc>
    <defs></defs>
    <g id="Symbols" stroke="none" stroke-width="1" fill="none" fill-rule="evenodd">
        <g id="footer" transform="translate(-104.000000, -55.000000)" fill="#000000">
            <g id="Group-+-150-Court-St.-2nd-Fl-+-Contact-Us-Mask">
                <g>
                    <g id="Group" transform="translate(103.000000, 55.000000)">
                        <path d="M177.727041,5.63386805 C198.151081,6.33876202 214.188119,23.3355405 213.474896,43.5210628 C213.419971,45.0755283 214.651897,46.3811793 216.224731,46.4354624 C217.797564,46.4897456 219.118643,45.2722063 219.173568,43.7177409 C219.99664,20.4232876 201.49575,0.815207087 177.926043,0.00174685393 C176.35321,-0.0525362757 175.032131,1.165003 174.977206,2.71946845 C174.922282,4.2739339 176.154208,5.57958492 177.727041,5.63386805 L177.727041,5.63386805" id="Shape"></path>
                        <path d="M192.116509,43.5088807 C192.059454,45.0698399 193.339183,46.3809453 194.973049,46.4354552 C196.606914,46.489965 197.979256,45.2673395 198.036312,43.7063803 C198.435289,32.790977 189.465756,23.6015331 178.040538,23.2203588 C176.406672,23.1658489 175.034331,24.3884744 174.977275,25.9494337 C174.920219,27.5103929 176.199948,28.8214983 177.833814,28.8760082 C185.997221,29.1483602 192.401375,35.7153958 192.116509,43.5088807 Z" id="Shape"></path>
                        <path d="M20.66688,73.2186047 L20.66688,56.3456447 L11.43168,56.3456447 L11.43168,60.8384447 L14.67648,60.8384447 L14.67648,65.4810047 C14.67648,67.1283647 13.57824,68.5760447 11.38176,68.5760447 C9.2352,68.5760447 8.08704,67.1283647 8.08704,65.4810047 L8.08704,47.7594047 C8.08704,46.1120447 9.13536,44.6643647 11.33184,44.6643647 C13.52832,44.6643647 14.52672,46.0621247 14.52672,47.6595647 L14.52672,51.3536447 L20.4672,51.3536447 L20.4672,47.9091647 C20.4672,43.2166847 17.27232,39.2730047 11.28192,39.2730047 C5.29152,39.2730047 1.79712,43.3664447 1.79712,47.9091647 L1.79712,65.2813247 C1.79712,70.0736447 4.84224,73.9674047 10.33344,73.9674047 C13.02912,73.9674047 15.32544,72.7693247 16.42368,70.5728447 L17.27232,73.2186047 L20.66688,73.2186047 Z M42.9312,64.8819647 C42.9312,70.1734847 39.33696,73.9674047 33.49632,73.9674047 C27.7056,73.9674047 24.06144,70.1734847 24.06144,64.8819647 L24.06144,48.3085247 C24.06144,43.0669247 27.7056,39.2730047 33.49632,39.2730047 C39.33696,39.2730047 42.9312,43.0669247 42.9312,48.3085247 L42.9312,64.8819647 Z M36.6912,65.2813247 L36.6912,47.9091647 C36.6912,45.9622847 35.54304,44.6643647 33.49632,44.6643647 C31.49952,44.6643647 30.35136,45.9622847 30.35136,47.9091647 L30.35136,65.2813247 C30.35136,67.2282047 31.49952,68.5261247 33.49632,68.5261247 C35.54304,68.5261247 36.6912,67.2282047 36.6912,65.2813247 Z M65.3952,64.8819647 C65.3952,70.1734847 61.80096,73.9674047 55.96032,73.9674047 C50.1696,73.9674047 46.52544,70.1734847 46.52544,64.8819647 L46.52544,48.3085247 C46.52544,43.0669247 50.1696,39.2730047 55.96032,39.2730047 C61.80096,39.2730047 65.3952,43.0669247 65.3952,48.3085247 L65.3952,64.8819647 Z M59.1552,65.2813247 L59.1552,47.9091647 C59.1552,45.9622847 58.00704,44.6643647 55.96032,44.6643647 C53.96352,44.6643647 52.81536,45.9622847 52.81536,47.9091647 L52.81536,65.2813247 C52.81536,67.2282047 53.96352,68.5261247 55.96032,68.5261247 C58.00704,68.5261247 59.1552,67.2282047 59.1552,65.2813247 Z M88.00896,64.5325247 C88.00896,69.8240447 84.76416,73.2186047 78.92352,73.2186047 L69.33888,73.2186047 L69.33888,39.9718847 L78.92352,39.9718847 C84.76416,39.9718847 88.00896,43.7158847 88.00896,48.9574847 L88.00896,64.5325247 Z M81.76896,64.2330047 L81.76896,49.0074047 C81.76896,46.6112447 80.77056,45.3133247 78.47424,45.3133247 L75.52896,45.3133247 L75.52896,67.8771647 L78.47424,67.8771647 C80.77056,67.8771647 81.76896,66.5792447 81.76896,64.2330047 Z M117.8112,65.2813247 L117.8112,61.2378047 L112.27008,61.2378047 L112.27008,65.2314047 C112.27008,67.1782847 111.17184,68.5261247 108.92544,68.5261247 C106.67904,68.5261247 105.53088,67.1782847 105.53088,65.3312447 L105.53088,47.8592447 C105.53088,46.0122047 106.67904,44.6643647 108.92544,44.6643647 C111.17184,44.6643647 112.27008,46.0122047 112.27008,47.9590847 L112.27008,51.9526847 L117.8112,51.9526847 L117.8112,47.9091647 C117.8112,42.9171647 114.71616,39.2230847 108.8256,39.2230847 C102.88512,39.2230847 99.24096,43.2166847 99.24096,48.3584447 L99.24096,64.8320447 C99.24096,69.9738047 102.88512,73.9674047 108.8256,73.9674047 C114.71616,73.9674047 117.8112,70.2733247 117.8112,65.2813247 Z M139.57632,73.2186047 L133.2864,73.2186047 L132.18816,66.6790847 L126.2976,66.6790847 L125.09952,73.2186047 L119.3088,73.2186047 L125.99808,39.9718847 L132.93696,39.9718847 L139.57632,73.2186047 Z M131.38944,61.7869247 L129.39264,48.9574847 L127.14624,61.7869247 L131.38944,61.7869247 Z M157.39776,73.2186047 L157.39776,67.7274047 L148.11264,67.7274047 L148.11264,39.9718847 L141.92256,39.9718847 L141.92256,73.2186047 L157.39776,73.2186047 Z M175.61856,73.2186047 L175.61856,67.7274047 L166.33344,67.7274047 L166.33344,39.9718847 L160.14336,39.9718847 L160.14336,73.2186047 L175.61856,73.2186047 Z" id="GOOD-CALL"></path>
                    </g>
                </g>
            </g>
        </g>
    </g>
</svg>