<?xml version="1.0" encoding="UTF-8"?>
<svg width="137px" height="52px" viewBox="0 0 137 52" version="1.1" xmlns="http://www.w3.org/2000/svg" xmlns:xlink="http://www.w3.org/1999/xlink">
    <!-- Generator: Sketch 46.2 (44496) - http://www.bohemiancoding.com/sketch -->
    <title>logo_WHITE_outlined</title>
    <desc>Created with Sketch.</desc>
    <defs></defs>
    <g id="Symbols" stroke="none" stroke-width="1" fill="none" fill-rule="evenodd">
        <g id="logo_WHITE_outlined" fill="#FDFFF9">
            <g id="logo_v.3">
                <path d="M111.079401,3.52116753 C123.844426,3.96172626 133.867574,14.5847128 133.42181,27.2006643 C133.387482,28.1722052 134.157436,28.9882371 135.140457,29.022164 C136.123478,29.056091 136.949152,28.2951289 136.98348,27.323588 C137.4979,12.7645547 125.934844,0.509504429 111.203777,0.0010917837 C110.220756,-0.0328351723 109.395082,0.728126874 109.360754,1.69966778 C109.326426,2.67120869 110.09638,3.48724057 111.079401,3.52116753 L111.079401,3.52116753" id="Shape"></path>
                <path d="M120.072818,27.1930504 C120.037159,28.1686499 120.836989,28.9880908 121.858155,29.0221595 C122.879321,29.0562282 123.737035,28.2920872 123.772695,27.3164877 C124.022056,20.4943606 118.416098,14.7509582 111.275336,14.5127243 C110.25417,14.4786556 109.396457,15.2427965 109.360797,16.218396 C109.325137,17.1939956 110.124968,18.0134364 111.146134,18.0475051 C116.248263,18.2177251 120.25086,22.3221224 120.072818,27.1930504 Z" id="Shape"></path>
                <path d="M12.9168,45.5116279 L12.9168,34.9660279 L7.1448,34.9660279 L7.1448,37.7740279 L9.1728,37.7740279 L9.1728,40.6756279 C9.1728,41.7052279 8.4864,42.6100279 7.1136,42.6100279 C5.772,42.6100279 5.0544,41.7052279 5.0544,40.6756279 L5.0544,29.5996279 C5.0544,28.5700279 5.7096,27.6652279 7.0824,27.6652279 C8.4552,27.6652279 9.0792,28.5388279 9.0792,29.5372279 L9.0792,31.8460279 L12.792,31.8460279 L12.792,29.6932279 C12.792,26.7604279 10.7952,24.2956279 7.0512,24.2956279 C3.3072,24.2956279 1.1232,26.8540279 1.1232,29.6932279 L1.1232,40.5508279 C1.1232,43.5460279 3.0264,45.9796279 6.4584,45.9796279 C8.1432,45.9796279 9.5784,45.2308279 10.2648,43.8580279 L10.7952,45.5116279 L12.9168,45.5116279 Z M26.832,40.3012279 C26.832,43.6084279 24.5856,45.9796279 20.9352,45.9796279 C17.316,45.9796279 15.0384,43.6084279 15.0384,40.3012279 L15.0384,29.9428279 C15.0384,26.6668279 17.316,24.2956279 20.9352,24.2956279 C24.5856,24.2956279 26.832,26.6668279 26.832,29.9428279 L26.832,40.3012279 Z M22.932,40.5508279 L22.932,29.6932279 C22.932,28.4764279 22.2144,27.6652279 20.9352,27.6652279 C19.6872,27.6652279 18.9696,28.4764279 18.9696,29.6932279 L18.9696,40.5508279 C18.9696,41.7676279 19.6872,42.5788279 20.9352,42.5788279 C22.2144,42.5788279 22.932,41.7676279 22.932,40.5508279 Z M40.872,40.3012279 C40.872,43.6084279 38.6256,45.9796279 34.9752,45.9796279 C31.356,45.9796279 29.0784,43.6084279 29.0784,40.3012279 L29.0784,29.9428279 C29.0784,26.6668279 31.356,24.2956279 34.9752,24.2956279 C38.6256,24.2956279 40.872,26.6668279 40.872,29.9428279 L40.872,40.3012279 Z M36.972,40.5508279 L36.972,29.6932279 C36.972,28.4764279 36.2544,27.6652279 34.9752,27.6652279 C33.7272,27.6652279 33.0096,28.4764279 33.0096,29.6932279 L33.0096,40.5508279 C33.0096,41.7676279 33.7272,42.5788279 34.9752,42.5788279 C36.2544,42.5788279 36.972,41.7676279 36.972,40.5508279 Z M55.0056,40.0828279 C55.0056,43.3900279 52.9776,45.5116279 49.3272,45.5116279 L43.3368,45.5116279 L43.3368,24.7324279 L49.3272,24.7324279 C52.9776,24.7324279 55.0056,27.0724279 55.0056,30.3484279 L55.0056,40.0828279 Z M51.1056,39.8956279 L51.1056,30.3796279 C51.1056,28.8820279 50.4816,28.0708279 49.0464,28.0708279 L47.2056,28.0708279 L47.2056,42.1732279 L49.0464,42.1732279 C50.4816,42.1732279 51.1056,41.3620279 51.1056,39.8956279 Z M73.632,40.5508279 L73.632,38.0236279 L70.1688,38.0236279 L70.1688,40.5196279 C70.1688,41.7364279 69.4824,42.5788279 68.0784,42.5788279 C66.6744,42.5788279 65.9568,41.7364279 65.9568,40.5820279 L65.9568,29.6620279 C65.9568,28.5076279 66.6744,27.6652279 68.0784,27.6652279 C69.4824,27.6652279 70.1688,28.5076279 70.1688,29.7244279 L70.1688,32.2204279 L73.632,32.2204279 L73.632,29.6932279 C73.632,26.5732279 71.6976,24.2644279 68.016,24.2644279 C64.3032,24.2644279 62.0256,26.7604279 62.0256,29.9740279 L62.0256,40.2700279 C62.0256,43.4836279 64.3032,45.9796279 68.016,45.9796279 C71.6976,45.9796279 73.632,43.6708279 73.632,40.5508279 Z M87.2352,45.5116279 L83.304,45.5116279 L82.6176,41.4244279 L78.936,41.4244279 L78.1872,45.5116279 L74.568,45.5116279 L78.7488,24.7324279 L83.0856,24.7324279 L87.2352,45.5116279 Z M82.1184,38.3668279 L80.8704,30.3484279 L79.4664,38.3668279 L82.1184,38.3668279 Z M98.3736,45.5116279 L98.3736,42.0796279 L92.5704,42.0796279 L92.5704,24.7324279 L88.7016,24.7324279 L88.7016,45.5116279 L98.3736,45.5116279 Z M109.7616,45.5116279 L109.7616,42.0796279 L103.9584,42.0796279 L103.9584,24.7324279 L100.0896,24.7324279 L100.0896,45.5116279 L109.7616,45.5116279 Z" id="GOOD-CALL"></path>
            </g>
        </g>
    </g>
</svg>