<?xml version="1.0" encoding="UTF-8" standalone="no"?>
<svg width="76px" height="76px" viewBox="0 0 76 76" version="1.1" xmlns="http://www.w3.org/2000/svg" xmlns:xlink="http://www.w3.org/1999/xlink">
    <!-- Generator: Sketch 39.1 (31720) - http://www.bohemiancoding.com/sketch -->
    <title>phone_icon</title>
    <desc>Created with Sketch.</desc>
    <defs></defs>
    <g id="Website-1024" stroke="none" stroke-width="1" fill="none" fill-rule="evenodd">
        <g id="home" transform="translate(-474.000000, -746.000000)">
            <g id="how-it-works" transform="translate(0.000000, 572.000000)">
                <g id="how-it-work-steps" transform="translate(115.000000, 172.000000)">
                    <g id="phone_icon" transform="translate(359.000000, 2.000000)">
                        <path d="M38,76 C58.9868205,76 76,58.9868205 76,38 C76,17.0131795 58.9868205,0 38,0 C17.0131795,0 0,17.0131795 0,38 C0,58.9868205 17.0131795,76 38,76 Z" id="Oval-2" fill="#40B097"></path>
                        <path d="M44.9637911,43.9610405 C36.3239546,52.602277 26.6369218,54.9510021 24.9849276,54.1553383 L20.7550757,49.2940886 C20.7564757,49.2894219 20.7578757,49.2847553 20.7597423,49.2800886 L26.8483211,44.4571055 L28.4858487,46.9187635 C28.5180486,46.9672967 28.5525818,47.0144299 28.5889816,47.0592297 C29.142913,47.7438273 29.9595769,48.1479593 30.8882403,48.1964924 C31.7935704,48.2450256 34.5440942,48.3887584 41.9678016,40.963651 C43.8036618,39.1273241 49.3905756,33.539477 49.1987763,29.8840897 C49.1497765,28.954493 48.7461112,28.1378292 48.0619803,27.5834311 C48.0167138,27.5465646 47.9700473,27.512498 47.9215141,27.4802981 L45.4593894,25.8418372 L50.2819058,19.7537251 C50.2870392,19.7518585 50.2921725,19.7499918 50.2977725,19.7481252 L55.1562221,23.9789104 C55.951886,25.6318379 53.6040942,35.3184041 44.9637911,43.9610405 M57.8269461,21.3599862 C57.7966129,21.329653 57.7648797,21.3002531 57.7326798,21.2722532 L52.7174307,16.9047351 C52.0276997,16.248604 51.0537698,15.9247385 50.0331734,16.0148049 C49.1231766,16.0941379 48.2430463,16.4987365 47.6181818,17.1240677 C47.567782,17.1749341 47.5201822,17.228134 47.475849,17.2841338 L42.5492662,23.5033787 C41.2631374,24.8856405 41.2925373,27.0574996 42.6369992,28.4038282 C42.7247323,28.4915613 42.8208652,28.569961 42.9235316,28.6385608 L45.4425894,30.3152882 C45.2423901,31.1884185 43.9277947,33.7224097 39.3283441,38.3232602 C34.7284269,42.9241108 32.193969,44.2391729 31.3208388,44.4398389 L29.6450446,41.920781 C29.5764449,41.817648 29.4980451,41.721515 29.4103121,41.6342487 C28.0639835,40.2883867 25.8921244,40.2589868 24.5103292,41.546049 L18.291551,46.4721651 C18.2346178,46.5174316 18.1809513,46.5654981 18.1296182,46.6168313 C16.7095565,48.039693 16.6180901,50.3552849 17.9135523,51.7160801 L22.2792037,56.7322626 C22.3072036,56.7649291 22.3366035,56.7966624 22.3669367,56.8269956 C23.2293337,57.6893926 24.5229292,57.9997248 25.9397242,57.9997248 C28.4984486,57.9997248 31.4575716,56.9861284 32.9956996,56.3813305 C35.9688225,55.2114012 41.8198687,52.3852778 47.6032485,46.6009647 C51.8895669,42.313713 55.3624881,37.1248644 57.3817477,31.9906157 C58.3216111,29.6008241 60.247071,23.7805777 57.8269461,21.3599862" id="phone" fill="#F7F9F9"></path>
                    </g>
                </g>
            </g>
        </g>
    </g>
</svg>