<?xml version="1.0" encoding="UTF-8" standalone="no"?>
<svg width="181px" height="291px" viewBox="0 0 181 291" version="1.1" xmlns="http://www.w3.org/2000/svg" xmlns:xlink="http://www.w3.org/1999/xlink">
    <!-- Generator: Sketch 39.1 (31720) - http://www.bohemiancoding.com/sketch -->
    <title>phone_img</title>
    <desc>Created with Sketch.</desc>
    <defs></defs>
    <g id="Website-1024" stroke="none" stroke-width="1" fill="none" fill-rule="evenodd">
        <g id="home" transform="translate(0.000000, -174.000000)" fill="#4A4A4A">
            <g id="intro" transform="translate(-156.000000, -2.000000)">
                <g id="phone_img" transform="translate(179.110832, 326.274964) rotate(-20.000000) translate(-179.110832, -326.274964) translate(35.110832, 200.774964)">
                    <path d="M189.47274,115.133864 C201.113035,164.614396 225.873577,201.892159 254.069988,203.766235 L254.069988,208.037681 C254.069988,225.604915 239.240122,239.947867 220.582074,239.947867 L214.698217,239.947867 C208.888249,239.947867 203.472056,238.561916 198.736688,236.116125 C209.577849,223.020535 214.286137,204.426032 204.87092,190.449397 C201.570073,185.687677 196.494851,182.157788 190.536844,182.157788 C184.578833,182.157788 179.441019,185.687677 176.140169,190.449397 C167.059078,204.987606 171.734898,224.475412 182.274404,236.116125 C177.539034,238.561916 172.12284,239.947867 166.312875,239.947867 C160.502907,239.947867 155.086713,238.561916 150.351346,236.116125 C161.192507,223.020535 165.900794,204.426032 156.485581,190.449397 C153.184731,185.687677 148.109512,182.157788 142.151501,182.157788 C136.193491,182.157788 131.055677,185.687677 127.754826,190.449397 C118.673735,204.987606 123.349555,224.475412 133.889062,236.116125 C129.153694,238.561916 123.737501,239.947867 117.927533,239.947867 C112.117567,239.947867 106.701374,238.561916 101.966003,236.116125 C112.807164,223.020535 117.515452,204.426032 108.100239,190.449397 C104.799388,185.687677 99.7241691,182.157788 93.7661586,182.157788 C87.8081514,182.157788 82.6703342,185.687677 79.3694871,190.449397 C70.2883959,204.987606 74.9642127,224.475412 85.5037194,236.116125 C80.768352,238.561916 75.3521585,239.947867 69.5421933,239.947867 C63.7322249,239.947867 58.3160314,238.561916 53.5806639,236.116125 C64.4218217,223.020535 69.1301126,204.426032 59.7148962,190.449397 C56.4140492,185.687677 51.3388267,182.157788 45.3808194,182.157788 C39.4228089,182.157788 34.2849949,185.687677 30.9841447,190.449397 C21.9030534,204.987606 26.5788734,224.475412 37.1183802,236.116125 C32.3830095,238.561916 26.966816,239.947867 21.1568508,239.947867 C15.3468824,239.947867 9.93068893,238.561916 5.19532146,236.116125 L1.70530257e-13,244.910267 C6.27732784,248.277051 13.5168733,250.186745 21.1568508,250.186745 C30.0623789,250.186745 38.3800393,247.560812 45.3182247,243.088623 C52.2628403,247.578749 60.6171763,250.186745 69.5421933,250.186745 C78.4477182,250.186745 86.7653818,247.560812 93.703564,243.088623 C100.64818,247.578749 109.002519,250.186745 117.927533,250.186745 C126.833061,250.186745 135.150721,247.560812 142.088906,243.088623 C149.033522,247.578749 157.387858,250.186745 166.312875,250.186745 C175.2184,250.186745 183.536064,247.560812 190.474249,243.088623 C197.418864,247.578749 205.7732,250.186745 214.698217,250.186745 L220.582074,250.186745 C244.515545,250.186745 264.210255,231.383027 264.210255,208.037681 L264.210255,202.949656 L252.066973,151.441121 C239.766114,153.696564 230.270586,133.783687 223.962162,106.967879 C217.653742,80.1520718 217.212813,57.8321664 229.220078,54.3286862 L217.139391,2.75732235 C184.859355,10.4049225 176.455991,59.8023144 189.47274,115.133864 Z M45.3808194,192.396667 C47.3776049,192.396667 49.4776672,193.532747 51.3898655,196.291237 C53.3020638,199.049759 54.6447642,203.261842 54.6447642,208.037681 C54.6447642,216.589172 51.0773749,224.344941 45.3182247,230.085864 C39.5773196,224.347926 36.0542767,216.573962 36.0542767,208.037681 C36.0542767,203.261842 37.4595718,199.049759 39.3717733,196.291237 C41.2839716,193.532747 43.3840307,192.396667 45.3808194,192.396667 L45.3808194,192.396667 Z M93.7661586,192.396667 C95.7629442,192.396667 97.8630065,193.532747 99.7752048,196.291237 C101.687403,199.049759 103.030107,203.261842 103.030107,208.037681 C103.030107,216.589172 99.4627141,224.344941 93.703564,230.085864 C87.9626621,224.347926 84.4396192,216.573962 84.4396192,208.037681 C84.4396192,203.261842 85.8449142,199.049759 87.7571125,196.291237 C89.6693108,193.532747 91.7693731,192.396667 93.7661586,192.396667 L93.7661586,192.396667 Z M142.151501,192.396667 C144.148287,192.396667 146.248349,193.532747 148.160547,196.291237 C150.072746,199.049759 151.415446,203.261842 151.415446,208.037681 C151.415446,216.589172 147.848057,224.344941 142.088906,230.085864 C136.348005,224.347926 132.824962,216.573962 132.824962,208.037681 C132.824962,203.261842 134.230257,199.049759 136.142455,196.291237 C138.054653,193.532747 140.154716,192.396667 142.151501,192.396667 L142.151501,192.396667 Z M196.54589,196.291237 C198.458088,199.049759 199.800788,203.261842 199.800788,208.037681 C199.800788,216.589172 196.233399,224.344941 190.474249,230.085864 C184.733347,224.347926 181.210301,216.573962 181.210301,208.037681 C181.210301,203.261842 182.615596,199.049759 184.527797,196.291237 C186.439996,193.532747 188.540055,192.396667 190.536844,192.396667 C192.533629,192.396667 194.633691,193.532747 196.54589,196.291237 Z" id="Shape"></path>
                    <path d="M220.748134,1.91074077 L232.905085,53.58745 C239.494786,51.9458846 245.289588,50.2934734 249.154929,46.9891644 C251.78052,44.7446627 253.561623,41.2728535 252.48983,36.7169142 L245.783592,8.21009326 C244.711799,3.65415397 241.571531,1.34829973 238.222872,0.519174098 C233.293028,-0.701426925 227.37366,0.421626131 220.748134,1.91074077 L220.748134,1.91074077 Z" id="Shape"></path>
                    <path d="M255.718489,150.562611 L267.875431,202.239321 C274.465131,200.597755 280.259937,198.945344 284.125274,195.641035 C286.750869,193.396533 288.531968,189.924724 287.460175,185.368785 L280.75396,156.861964 C279.682167,152.306025 276.541877,150.00017 273.193217,149.171045 C268.263396,147.950444 262.344005,149.073497 255.718489,150.562611 L255.718489,150.562611 Z" id="Shape"></path>
                </g>
            </g>
        </g>
    </g>
</svg>