<?xml version="1.0" encoding="UTF-8" standalone="no"?>
<svg width="132px" height="132px" viewBox="0 0 132 132" version="1.1" xmlns="http://www.w3.org/2000/svg" xmlns:xlink="http://www.w3.org/1999/xlink">
    <!-- Generator: Sketch 39.1 (31720) - http://www.bohemiancoding.com/sketch -->
    <title>phone_icon</title>
    <desc>Created with Sketch.</desc>
    <defs></defs>
    <g id="Website-1024" stroke="none" stroke-width="1" fill="none" fill-rule="evenodd">
        <g id="how-it-works" transform="translate(-295.000000, -1163.000000)">
            <g id="know-what-to-expect" transform="translate(0.000000, 534.000000)">
                <g id="graphic" transform="translate(186.000000, 211.000000)">
                    <g id="phone_icon" transform="translate(109.000000, 328.000000)">
                        <circle id="Oval-5" fill="#40B097" cx="66" cy="156" r="66"></circle>
                        <g id="logo-phone_icon" transform="translate(24.000000, 121.000000)" fill="#F7F9F9">
                            <g id="Group">
                                <g>
                                    <path d="M80.4222518,36.0969735 L83.7273241,36.0969735 C86.842227,36.0969735 89.8021772,33.3546901 89.8021772,30.2430164 L89.8021772,23.7329516 C89.8021772,20.6230368 86.8404662,18.506958 83.7273241,18.506958 L76.7984698,18.506958 C76.7597316,18.3451298 76.7280367,18.2008917 76.684016,18.0197145 C76.2033103,16.1164749 75.3176143,13.6134156 73.7504783,10.8535422 C69.9699827,4.19748031 64.0870597,0.916942404 56.7356069,0.916942404 L21.3060068,0.916942404 C13.954554,0.916942404 8.07163099,4.23266034 4.29113541,10.8904812 C1.51607205,15.7769876 0.873370194,20.2272615 0.846957789,20.4313057 L0.593398701,22.0249611 L14.2098739,22.0249611 L14.5796476,21.0451972 C14.5849301,21.0258482 15.166003,18.8200602 16.285889,16.8957125 C17.1962365,15.3337192 18.6489188,13.2299533 20.4044633,13.2299533 L57.6353895,13.2299533 C59.390934,13.2299533 60.8436163,15.4761983 61.752203,17.0381917 C62.872089,18.9625394 63.4531619,20.832358 63.4584444,20.851707 L63.8299789,22.0249611 L77.3196746,22.0249611 L77.4464541,22.0249611 L83.7255632,22.0249611 C84.898274,22.0249611 86.2787624,22.5632156 86.2787624,23.7329516 L86.2787624,30.2430164 C86.2805232,31.4145114 84.898274,32.5789704 83.7273241,32.5789704 L80.4222518,32.5789704 C77.3091096,32.5789704 74.7752796,34.7460603 74.7752796,37.8559751 C74.7752796,40.9676488 77.3073488,43.1329798 80.4222518,43.1329798 L83.7273241,43.1329798 C84.9000348,43.1329798 85.8526423,44.6017461 85.8526423,45.7714821 C85.8526423,46.9412181 84.898274,48.4099844 83.7273241,48.4099844 L80.9980422,48.4099844 L80.9980422,51.9279875 L83.7273241,51.9279875 C86.842227,51.9279875 89.3742963,48.8813969 89.3742963,45.7714821 C89.3742963,42.6598083 86.842227,39.6149767 83.7273241,39.6149767 L80.4222518,39.6149767 C79.249541,39.6149767 78.2969336,39.0257111 78.2969336,37.8559751 C78.2969336,36.6862391 79.249541,36.0969735 80.4222518,36.0969735 L80.4222518,36.0969735 Z M66.4078296,18.506958 C66.0715117,18.506958 65.5362203,16.251918 64.7966729,14.9836779 C62.3068636,10.7057861 59.5282785,9.71195019 57.6353895,9.71195019 L20.4044633,9.71195019 C18.5115743,9.71195019 15.7312285,10.7057861 13.2414191,14.9836779 C12.5053934,16.253677 11.970102,18.506958 11.6320232,18.506958 L4.74366795,18.506958 C5.1574623,16.7479564 5.94455197,14.8183317 7.35321357,12.3381395 C10.5156589,6.77089958 15.2100237,4.43494552 21.3060068,4.43494552 L56.7356069,4.43494552 C62.83159,4.43494552 67.524194,6.76914058 70.6866393,12.3398985 C72.0953009,14.8200907 72.8841514,16.7479564 73.2961849,18.506958 L66.4078296,18.506958 L66.4078296,18.506958 Z" id="Shape"></path>
                                    <rect id="Rectangle-path" x="0" y="25.5429642" width="14.086616" height="3.51800311"></rect>
                                    <rect id="Rectangle-path" x="63.3897722" y="25.5429642" width="14.086616" height="3.51800311"></rect>
                                    <path d="M72.3594249,43.4689491 C71.1514976,38.3537725 65.8866249,34.337972 60.6287954,34.337972 L57.559674,34.337972 C57.5508698,34.2429859 57.5209358,34.1444818 57.5121316,34.0494957 C56.6053057,24.7795575 48.744974,17.5096041 39.2294648,17.5096041 C29.7157165,17.5096041 21.8624281,24.7795575 20.9556022,34.0494957 C20.946798,34.1444818 20.9450372,34.2412269 20.9362331,34.337972 C20.9344723,34.352044 21.0013837,34.366116 21.0013837,34.380188 C20.9855362,34.5807142 20.9855362,34.7829994 20.9872971,34.9852846 C20.9820146,34.7038443 20.9784929,34.4663791 20.9996229,34.380188 C21.0013837,34.366116 20.9309506,34.352044 20.9327114,34.337972 L17.7949177,34.337972 C12.5353274,34.337972 7.27221553,38.3537725 6.06252738,43.4689491 L3.20470515,55.4776527 C2.57961156,58.117914 3.0779256,60.8549204 4.60808427,62.7863042 C6.13648211,64.7176879 8.47486037,66 11.1900556,66 L67.2301359,66 C69.9453311,66 72.2837094,64.6807488 73.813868,62.7511241 C75.3440267,60.8214994 75.8405799,58.047554 75.2172472,55.4055336 L72.3594249,43.4689491 L72.3594249,43.4689491 Z M58.1072911,35.8788573 L58.1072911,36.1356716 C58.1072911,36.3731368 58.0104457,36.7020701 57.8924703,37.0116543 C57.9893157,36.635228 58.1072911,36.2588017 58.1072911,35.8788573 L58.1072911,35.8788573 Z M57.7780165,35.3353259 C57.8097114,35.488359 57.8326021,35.6413921 57.834363,35.7856303 C57.834363,35.6343561 57.8009073,35.484841 57.7780165,35.3353259 L57.7780165,35.3353259 Z M39.2100957,21.0276072 C47.390898,21.0276072 54.0450632,27.6748741 54.0450632,35.8471953 C54.0450632,44.0195165 47.3891372,50.6667834 39.2100957,50.6667834 C31.0310543,50.6667834 24.3751282,44.0177575 24.3751282,35.8471953 C24.3751282,27.6766331 31.0310543,21.0276072 39.2100957,21.0276072 L39.2100957,21.0276072 Z M71.7836345,58.9692708 C71.6374859,59.5814033 71.4085783,60.1530788 71.0528913,60.6033832 C70.2059335,61.6728562 68.8483359,62.4819969 67.2318967,62.4819969 L11.1900556,62.4819969 C9.57361642,62.4819969 8.2160188,61.6376761 7.36906101,60.5682032 C7.01161313,60.1178988 6.78446645,59.5638133 6.63831781,58.9710298 C6.52386405,58.5031354 6.45167014,58.0158919 6.47280007,57.5022635 C6.48864751,57.1205601 6.53971149,56.7300618 6.6312745,56.3413225 L9.48909673,44.3396548 C10.330772,40.7829537 14.1323975,37.8559751 17.7931569,37.8559751 L20.9415156,37.8559751 C20.9027774,37.8559751 21.018992,37.2543966 21.0859034,36.7020701 C21.0647735,36.9923053 21.0506868,37.2807816 21.0788601,37.5674988 C21.9504694,46.8743761 29.7403681,54.1847865 39.278768,54.1847865 C48.7203224,54.1847865 56.7320853,47.0238912 57.7445608,37.8559751 L60.6287954,37.8559751 C64.2895548,37.8559751 68.0911803,40.7178706 68.9328556,44.2780898 L71.7906778,56.2867934 C71.8857625,56.6896048 71.9368264,57.0976931 71.9491522,57.5022635 C71.9649997,58.0106149 71.8963274,58.4996174 71.7836345,58.9692708 L71.7836345,58.9692708 Z" id="Shape"></path>
                                    <ellipse id="Oval" cx="39.2100957" cy="25.7399724" rx="2.26794518" ry="2.265594"></ellipse>
                                    <ellipse id="Oval" cx="39.2100957" cy="45.9544183" rx="2.26794518" ry="2.265594"></ellipse>
                                    <ellipse id="Oval" cx="49.3278077" cy="35.8471953" rx="2.26794518" ry="2.265594"></ellipse>
                                    <ellipse id="Oval" cx="29.0941446" cy="35.8471953" rx="2.26794518" ry="2.265594"></ellipse>
                                    <ellipse id="Oval" cx="46.3643359" cy="42.9940186" rx="2.26794518" ry="2.265594"></ellipse>
                                    <ellipse id="Oval" cx="32.0558556" cy="28.700372" rx="2.26794518" ry="2.265594"></ellipse>
                                    <ellipse id="Oval" cx="32.0558556" cy="42.9940186" rx="2.26794518" ry="2.265594"></ellipse>
                                    <ellipse id="Oval" cx="46.3643359" cy="28.700372" rx="2.26794518" ry="2.265594"></ellipse>
                                </g>
                            </g>
                        </g>
                    </g>
                </g>
            </g>
        </g>
    </g>
</svg>