<?xml version="1.0" encoding="UTF-8" standalone="no"?>
<svg width="136px" height="136px" viewBox="0 0 136 136" version="1.1" xmlns="http://www.w3.org/2000/svg" xmlns:xlink="http://www.w3.org/1999/xlink">
    <!-- Generator: Sketch 39.1 (31720) - http://www.bohemiancoding.com/sketch -->
    <title>precinct_icon</title>
    <desc>Created with Sketch.</desc>
    <defs></defs>
    <g id="Website-1024" stroke="none" stroke-width="1" fill="none" fill-rule="evenodd">
        <g id="how-it-works" transform="translate(-291.000000, -957.000000)">
            <g id="know-what-to-expect" transform="translate(0.000000, 534.000000)">
                <g id="graphic" transform="translate(186.000000, 211.000000)">
                    <g id="precinct_icon" transform="translate(107.000000, 214.000000)">
                        <circle id="Oval-5" stroke="#F7F9F9" stroke-width="4" fill="#4A4A4A" cx="66" cy="66" r="66"></circle>
                        <g id="Group" transform="translate(29.000000, 27.000000)" fill="#F7F9F9">
                            <g transform="translate(0.000000, 0.637800)" id="Shape">
                                <path d="M3.79256875,0 C3.09440504,6.98059008e-05 2.52844897,0.566025872 2.52837917,1.26418958 L2.52837917,70.7946167 L1.26418958,70.7946167 C0.566025872,70.7946865 6.98059008e-05,71.3606425 0,72.0588063 L4.49130363e-15,79.6439438 C6.98059008e-05,80.3421075 0.566025872,80.9080635 1.26418958,80.9081333 L74.5871854,80.9081333 C75.2853491,80.9080635 75.8513052,80.3421075 75.851375,79.6439438 L75.851375,72.0588063 C75.8513052,71.3606425 75.2853491,70.7946865 74.5871854,70.7946167 L73.3229958,70.7946167 L73.3229958,1.26418958 C73.322926,0.566025872 72.75697,6.98059008e-05 72.0588063,0 L3.79256875,0 L3.79256875,0 Z M5.05675833,2.52837917 L70.7946167,2.52837917 L70.7946167,70.7946167 L50.5675833,70.7946167 L50.5675833,36.6614979 C50.5675136,35.9633342 50.0015575,35.3973781 49.3033937,35.3973083 L26.5479812,35.3973083 C25.8498175,35.3973781 25.2838614,35.9633342 25.2837917,36.6614979 L25.2837917,70.7946167 L5.05675833,70.7946167 L5.05675833,2.52837917 L5.05675833,2.52837917 Z M10.1135167,5.05675833 L10.1135167,7.5851375 L7.5851375,7.5851375 L7.5851375,10.1135167 L10.1135167,10.1135167 L10.1135167,15.170275 L7.5851375,15.170275 L7.5851375,17.6986542 L10.1135167,17.6986542 L10.1135167,22.7554125 L7.5851375,22.7554125 L7.5851375,25.2837917 L10.1135167,25.2837917 L10.1135167,30.34055 L7.5851375,30.34055 L7.5851375,32.8689292 L10.1135167,32.8689292 L10.1135167,37.9256875 L7.5851375,37.9256875 L7.5851375,40.4540667 L10.1135167,40.4540667 L10.1135167,45.510825 L7.5851375,45.510825 L7.5851375,48.0392042 L10.1135167,48.0392042 L10.1135167,53.0959625 L7.5851375,53.0959625 L7.5851375,55.6243417 L10.1135167,55.6243417 L10.1135167,60.6811 L7.5851375,60.6811 L7.5851375,63.2094792 L10.1135167,63.2094792 L10.1135167,68.2662375 L12.6418958,68.2662375 L12.6418958,63.2094792 L17.6986542,63.2094792 L17.6986542,68.2662375 L20.2270333,68.2662375 L20.2270333,63.2094792 L22.7554125,63.2094792 L22.7554125,60.6811 L20.2270333,60.6811 L20.2270333,55.6243417 L22.7554125,55.6243417 L22.7554125,53.0959625 L20.2270333,53.0959625 L20.2270333,48.0392042 L22.7554125,48.0392042 L22.7554125,45.510825 L20.2270333,45.510825 L20.2270333,40.4540667 L22.7554125,40.4540667 L22.7554125,37.9256875 L20.2270333,37.9256875 L20.2270333,32.8689292 L55.6243417,32.8689292 L55.6243417,37.9256875 L53.0959625,37.9256875 L53.0959625,40.4540667 L55.6243417,40.4540667 L55.6243417,45.510825 L53.0959625,45.510825 L53.0959625,48.0392042 L55.6243417,48.0392042 L55.6243417,53.0959625 L53.0959625,53.0959625 L53.0959625,55.6243417 L55.6243417,55.6243417 L55.6243417,60.6811 L53.0959625,60.6811 L53.0959625,63.2094792 L55.6243417,63.2094792 L55.6243417,68.2662375 L58.1527208,68.2662375 L58.1527208,63.2094792 L63.2094792,63.2094792 L63.2094792,68.2662375 L65.7378583,68.2662375 L65.7378583,63.2094792 L68.2662375,63.2094792 L68.2662375,60.6811 L65.7378583,60.6811 L65.7378583,55.6243417 L68.2662375,55.6243417 L68.2662375,53.0959625 L65.7378583,53.0959625 L65.7378583,48.0392042 L68.2662375,48.0392042 L68.2662375,45.510825 L65.7378583,45.510825 L65.7378583,40.4540667 L68.2662375,40.4540667 L68.2662375,37.9256875 L65.7378583,37.9256875 L65.7378583,32.8689292 L68.2662375,32.8689292 L68.2662375,30.34055 L65.7378583,30.34055 L65.7378583,25.2837917 L68.2662375,25.2837917 L68.2662375,22.7554125 L65.7378583,22.7554125 L65.7378583,17.6986542 L68.2662375,17.6986542 L68.2662375,15.170275 L65.7378583,15.170275 L65.7378583,10.1135167 L68.2662375,10.1135167 L68.2662375,7.5851375 L65.7378583,7.5851375 L65.7378583,5.05675833 L63.2094792,5.05675833 L63.2094792,7.5851375 L58.1527208,7.5851375 L58.1527208,5.05675833 L55.6243417,5.05675833 L55.6243417,7.5851375 L50.5675833,7.5851375 L50.5675833,5.05675833 L48.0392042,5.05675833 L48.0392042,7.5851375 L42.9824458,7.5851375 L42.9824458,5.05675833 L40.4540667,5.05675833 L40.4540667,7.5851375 L35.3973083,7.5851375 L35.3973083,5.05675833 L32.8689292,5.05675833 L32.8689292,7.5851375 L27.8121708,7.5851375 L27.8121708,5.05675833 L25.2837917,5.05675833 L25.2837917,7.5851375 L20.2270333,7.5851375 L20.2270333,5.05675833 L17.6986542,5.05675833 L17.6986542,7.5851375 L12.6418958,7.5851375 L12.6418958,5.05675833 L10.1135167,5.05675833 L10.1135167,5.05675833 Z M12.6418958,10.1135167 L17.6986542,10.1135167 L17.6986542,15.170275 L12.6418958,15.170275 L12.6418958,10.1135167 L12.6418958,10.1135167 Z M20.2270333,10.1135167 L25.2837917,10.1135167 L25.2837917,15.170275 L20.2270333,15.170275 L20.2270333,10.1135167 L20.2270333,10.1135167 Z M27.8121708,10.1135167 L32.8689292,10.1135167 L32.8689292,15.170275 L27.8121708,15.170275 L27.8121708,10.1135167 L27.8121708,10.1135167 Z M35.3973083,10.1135167 L40.4540667,10.1135167 L40.4540667,15.170275 L35.3973083,15.170275 L35.3973083,10.1135167 L35.3973083,10.1135167 Z M42.9824458,10.1135167 L48.0392042,10.1135167 L48.0392042,15.170275 L42.9824458,15.170275 L42.9824458,10.1135167 L42.9824458,10.1135167 Z M50.5675833,10.1135167 L55.6243417,10.1135167 L55.6243417,15.170275 L50.5675833,15.170275 L50.5675833,10.1135167 L50.5675833,10.1135167 Z M58.1527208,10.1135167 L63.2094792,10.1135167 L63.2094792,15.170275 L58.1527208,15.170275 L58.1527208,10.1135167 L58.1527208,10.1135167 Z M12.6418958,17.6986542 L17.6986542,17.6986542 L17.6986542,22.7554125 L12.6418958,22.7554125 L12.6418958,17.6986542 L12.6418958,17.6986542 Z M20.2270333,17.6986542 L25.2837917,17.6986542 L25.2837917,22.7554125 L20.2270333,22.7554125 L20.2270333,17.6986542 L20.2270333,17.6986542 Z M27.8121708,17.6986542 L32.8689292,17.6986542 L32.8689292,22.7554125 L27.8121708,22.7554125 L27.8121708,17.6986542 L27.8121708,17.6986542 Z M35.3973083,17.6986542 L40.4540667,17.6986542 L40.4540667,22.7554125 L35.3973083,22.7554125 L35.3973083,17.6986542 L35.3973083,17.6986542 Z M42.9824458,17.6986542 L48.0392042,17.6986542 L48.0392042,22.7554125 L42.9824458,22.7554125 L42.9824458,17.6986542 L42.9824458,17.6986542 Z M50.5675833,17.6986542 L55.6243417,17.6986542 L55.6243417,22.7554125 L50.5675833,22.7554125 L50.5675833,17.6986542 L50.5675833,17.6986542 Z M58.1527208,17.6986542 L63.2094792,17.6986542 L63.2094792,22.7554125 L58.1527208,22.7554125 L58.1527208,17.6986542 L58.1527208,17.6986542 Z M12.6418958,25.2837917 L17.6986542,25.2837917 L17.6986542,30.34055 L12.6418958,30.34055 L12.6418958,25.2837917 L12.6418958,25.2837917 Z M20.2270333,25.2837917 L25.2837917,25.2837917 L25.2837917,30.34055 L20.2270333,30.34055 L20.2270333,25.2837917 L20.2270333,25.2837917 Z M27.8121708,25.2837917 L32.8689292,25.2837917 L32.8689292,30.34055 L27.8121708,30.34055 L27.8121708,25.2837917 L27.8121708,25.2837917 Z M35.3973083,25.2837917 L40.4540667,25.2837917 L40.4540667,30.34055 L35.3973083,30.34055 L35.3973083,25.2837917 L35.3973083,25.2837917 Z M42.9824458,25.2837917 L48.0392042,25.2837917 L48.0392042,30.34055 L42.9824458,30.34055 L42.9824458,25.2837917 L42.9824458,25.2837917 Z M50.5675833,25.2837917 L55.6243417,25.2837917 L55.6243417,30.34055 L50.5675833,30.34055 L50.5675833,25.2837917 L50.5675833,25.2837917 Z M58.1527208,25.2837917 L63.2094792,25.2837917 L63.2094792,30.34055 L58.1527208,30.34055 L58.1527208,25.2837917 L58.1527208,25.2837917 Z M12.6418958,32.8689292 L17.6986542,32.8689292 L17.6986542,37.9256875 L12.6418958,37.9256875 L12.6418958,32.8689292 L12.6418958,32.8689292 Z M58.1527208,32.8689292 L63.2094792,32.8689292 L63.2094792,37.9256875 L58.1527208,37.9256875 L58.1527208,32.8689292 L58.1527208,32.8689292 Z M27.8121708,37.9256875 L48.0392042,37.9256875 L48.0392042,70.7946167 L42.9824458,70.7946167 L42.9824458,58.1527208 L45.510825,58.1527208 L45.510825,55.6243417 L42.9824458,55.6243417 L40.4540667,55.6243417 L35.3973083,55.6243417 L32.8689292,55.6243417 L30.34055,55.6243417 L30.34055,58.1527208 L32.8689292,58.1527208 L32.8689292,70.7946167 L27.8121708,70.7946167 L27.8121708,37.9256875 L27.8121708,37.9256875 Z M37.9158117,40.4392529 L37.9158117,40.4441908 C37.8746841,40.4422002 37.8334835,40.4422002 37.792356,40.4441908 C37.3690216,40.4884278 36.9962441,40.7406554 36.7997699,41.1157915 L35.3874325,43.826884 L32.3553521,44.3256473 C31.889794,44.4036149 31.5063449,44.7319953 31.3601104,45.1779581 C31.213876,45.623921 31.3290557,46.1136662 31.6590593,46.4490913 L33.8170714,48.6219172 L33.357814,51.6391812 C33.2855021,52.1051427 33.4810608,52.5722296 33.8646738,52.8498031 C34.2482869,53.1273766 34.7557806,53.1690022 35.1800245,52.9576905 L37.9256875,51.5897994 L40.6713505,52.9576905 C41.0947258,53.1681902 41.6008663,53.1269449 41.9840526,52.8507186 C42.3672388,52.5744922 42.5636907,52.1092619 42.493561,51.6441191 L42.0343036,48.6268551 L44.1923157,46.4540293 C44.525201,46.1188538 44.642223,45.6272724 44.4957267,45.1794723 C44.3492304,44.7316721 43.9636566,44.402362 43.4960229,44.3256473 L40.4639425,43.826884 L39.0516051,41.1157915 C38.8309553,40.6962618 38.3922632,40.4349536 37.9158117,40.4392529 L37.9158117,40.4392529 Z M12.6418958,40.4441908 L17.6986542,40.4441908 L17.6986542,45.5009492 L12.6418958,45.5009492 L12.6418958,40.4441908 L12.6418958,40.4441908 Z M58.1527208,40.4441908 L63.2094792,40.4441908 L63.2094792,45.5009492 L58.1527208,45.5009492 L58.1527208,40.4441908 L58.1527208,40.4441908 Z M37.9256875,44.4342892 L38.5034626,45.5404551 C38.6875518,45.8954905 39.0301494,46.1428207 39.4269126,46.2071179 L40.6664101,46.4095854 L39.782466,47.2984675 C39.5008824,47.582087 39.3708715,47.9812747 39.4318506,48.3750033 L39.6195043,49.6095653 L38.4935842,49.0515444 C38.1361359,48.8737535 37.7152391,48.8737535 37.3577908,49.0515444 L36.2318707,49.6145032 L36.4195244,48.3799437 C36.4805043,47.9862144 36.3504934,47.5870255 36.068909,47.3034054 L35.1849649,46.4145233 L36.4294003,46.2120558 C36.8233413,46.1473861 37.1636397,45.9022245 37.3479124,45.5503309 L37.9256875,44.444165 L37.9256875,44.4342892 L37.9256875,44.4342892 Z M12.6418958,48.0293283 L17.6986542,48.0293283 L17.6986542,53.0860867 L12.6418958,53.0860867 L12.6418958,48.0293283 L12.6418958,48.0293283 Z M58.1527208,48.0293283 L63.2094792,48.0293283 L63.2094792,53.0860867 L58.1527208,53.0860867 L58.1527208,48.0293283 L58.1527208,48.0293283 Z M12.6418958,55.6144658 L17.6986542,55.6144658 L17.6986542,60.6712242 L12.6418958,60.6712242 L12.6418958,55.6144658 L12.6418958,55.6144658 Z M58.1527208,55.6144658 L63.2094792,55.6144658 L63.2094792,60.6712242 L58.1527208,60.6712242 L58.1527208,55.6144658 L58.1527208,55.6144658 Z M35.3973083,58.142845 L40.4540667,58.142845 L40.4540667,70.7847408 L35.3973083,70.7847408 L35.3973083,58.142845 L35.3973083,58.142845 Z M2.52837917,73.31312 L73.3229958,73.31312 L73.3229958,78.3698783 L2.52837917,78.3698783 L2.52837917,73.31312 L2.52837917,73.31312 Z"></path>
                            </g>
                        </g>
                    </g>
                </g>
            </g>
        </g>
    </g>
</svg>