<?xml version="1.0" encoding="UTF-8" standalone="no"?>
<svg width="152px" height="152px" viewBox="0 0 152 152" version="1.1" xmlns="http://www.w3.org/2000/svg" xmlns:xlink="http://www.w3.org/1999/xlink">
    <!-- Generator: Sketch 39.1 (31720) - http://www.bohemiancoding.com/sketch -->
    <title>registration_icon</title>
    <desc>Created with Sketch.</desc>
    <defs>
        <ellipse id="path-1" cx="70" cy="70.1295696" rx="70" ry="70.1295696"></ellipse>
        <filter x="-50%" y="-50%" width="200%" height="200%" filterUnits="objectBoundingBox" id="filter-2">
            <feMorphology radius="3" operator="dilate" in="SourceAlpha" result="shadowSpreadOuter1"></feMorphology>
            <feOffset dx="0" dy="2" in="shadowSpreadOuter1" result="shadowOffsetOuter1"></feOffset>
            <feGaussianBlur stdDeviation="2" in="shadowOffsetOuter1" result="shadowBlurOuter1"></feGaussianBlur>
            <feComposite in="shadowBlurOuter1" in2="SourceAlpha" operator="out" result="shadowBlurOuter1"></feComposite>
            <feColorMatrix values="0 0 0 0 0   0 0 0 0 0   0 0 0 0 0  0 0 0 0.5 0" type="matrix" in="shadowBlurOuter1"></feColorMatrix>
        </filter>
        <filter x="-50%" y="-50%" width="200%" height="200%" filterUnits="objectBoundingBox" id="filter-3">
            <feOffset dx="0" dy="2" in="SourceAlpha" result="shadowOffsetOuter1"></feOffset>
            <feGaussianBlur stdDeviation="2" in="shadowOffsetOuter1" result="shadowBlurOuter1"></feGaussianBlur>
            <feColorMatrix values="0 0 0 0 0   0 0 0 0 0   0 0 0 0 0  0 0 0 0.5 0" type="matrix" in="shadowBlurOuter1" result="shadowMatrixOuter1"></feColorMatrix>
            <feMerge>
                <feMergeNode in="shadowMatrixOuter1"></feMergeNode>
                <feMergeNode in="SourceGraphic"></feMergeNode>
            </feMerge>
        </filter>
    </defs>
    <g id="Website-1024" stroke="none" stroke-width="1" fill="none" fill-rule="evenodd">
        <g id="home-v.5" transform="translate(-283.000000, -1465.000000)">
            <g id="how-it-works-graphic" transform="translate(0.000000, 943.000000)">
                <g id="graphic" transform="translate(186.000000, 525.971772)">
                    <g id="registration_icon" transform="translate(103.000000, 0.000000)">
                        <g id="Oval-4">
                            <use fill="black" fill-opacity="1" filter="url(#filter-2)" xlink:href="#path-1"></use>
                            <use stroke="#F7F9F9" stroke-width="6" fill="#4A4A4A" fill-rule="evenodd" xlink:href="#path-1"></use>
                        </g>
                        <g id="Group" filter="url(#filter-3)" transform="translate(31.000000, 39.072189)" fill="#F7F9F9">
                            <path d="M71.5,1.50277649 C69.4,-0.400740398 65.9,-0.100185099 64.1,1.90351689 L58.7,8.01480796 L58.7,8.01480796 L33.7,36.8681166 C33.4,37.268857 33.2,37.6695974 33.2,38.1705229 L32,48.8903286 C31.9,49.5916242 32.2,50.393105 32.8,50.8940305 C33.2,51.2947709 33.8,51.4951411 34.3,51.4951411 C34.5,51.4951411 34.7,51.4951411 34.8,51.394956 L45.3,48.8903286 C45.8,48.7901435 46.2,48.4895882 46.5,48.1890329 L73,17.6325775 L76.8,13.3246182 C78.7,11.120546 78.5,7.81443776 76.3,5.91092087 L71.5,1.50277649 L71.5,1.50277649 Z M67.5,5.00925497 C67.8,4.60851458 68.1,4.70869968 68.4,4.90906988 L73.3,9.31721425 C73.6,9.51758445 73.6,9.91832485 73.4,10.2188801 L71.1,12.8236927 L65.2,7.61406756 L67.5,5.00925497 L67.5,5.00925497 Z M37.3,43.0795928 L40,45.4840352 L37,46.1853309 L37.3,43.0795928 L37.3,43.0795928 Z M44.6,43.3801481 L38.7,38.1705229 L62.1,11.120546 L68,16.3301712 L44.6,43.3801481 L44.6,43.3801481 Z" id="Shape"></path>
                            <path d="M61.1,38.4710782 C59.8,38.4710782 58.8,39.4729292 58.8,40.7753355 L58.8,57.2056918 L4.6,57.2056918 L4.6,8.11499306 L48.7,8.11499306 C50,8.11499306 51,7.11314206 51,5.81073577 C51,4.50832948 50,3.50647848 48.7,3.50647848 L4.1,3.50647848 C1.8,3.50647848 -3.55271368e-15,5.40999537 -3.55271368e-15,7.61406756 L-3.55271368e-15,57.6064322 C-3.55271368e-15,59.9106895 1.9,61.7140213 4.1,61.7140213 L59.2,61.7140213 C61.5,61.7140213 63.3,59.8105044 63.3,57.6064322 L63.3,40.7753355 C63.4,39.5731143 62.3,38.4710782 61.1,38.4710782 L61.1,38.4710782 Z" id="Shape"></path>
                            <path d="M11.1,25.6473855 L20.5,25.6473855 C21.8,25.6473855 22.8,24.6455345 22.8,23.3431282 C22.8,22.0407219 21.8,21.0388709 20.5,21.0388709 L11.1,21.0388709 C9.8,21.0388709 8.8,22.0407219 8.8,23.3431282 C8.8,24.5453494 9.8,25.6473855 11.1,25.6473855 L11.1,25.6473855 Z" id="Shape"></path>
                            <path d="M36.6,14.2262841 C36.6,12.9238778 35.6,11.9220268 34.3,11.9220268 L11.1,11.9220268 C9.8,11.9220268 8.8,12.9238778 8.8,14.2262841 C8.8,15.5286904 9.8,16.5305414 11.1,16.5305414 L34.3,16.5305414 C35.6,16.5305414 36.6,15.5286904 36.6,14.2262841 L36.6,14.2262841 Z" id="Shape"></path>
                            <path d="M30.8,32.3597871 C30.8,31.0573808 29.8,30.0555298 28.5,30.0555298 L11.5,30.0555298 C10.2,30.0555298 9.2,31.0573808 9.2,32.3597871 C9.2,33.6621934 10.2,34.6640444 11.5,34.6640444 L28.5,34.6640444 C29.8,34.6640444 30.8,33.6621934 30.8,32.3597871 L30.8,32.3597871 Z" id="Shape"></path>
                            <path d="M11.5,43.7808885 L17,43.7808885 C18.3,43.7808885 19.3,42.7790375 19.3,41.4766312 C19.3,40.1742249 18.3,39.1723739 17,39.1723739 L11.5,39.1723739 C10.2,39.1723739 9.2,40.1742249 9.2,41.4766312 C9.2,42.7790375 10.2,43.7808885 11.5,43.7808885 L11.5,43.7808885 Z" id="Shape"></path>
                            <path d="M11.5,52.7975474 L21.7,52.7975474 C23,52.7975474 24,51.7956964 24,50.4932901 C24,49.1908839 23,48.1890329 21.7,48.1890329 L11.5,48.1890329 C10.2,48.1890329 9.2,49.1908839 9.2,50.4932901 C9.2,51.7956964 10.2,52.7975474 11.5,52.7975474 L11.5,52.7975474 Z" id="Shape"></path>
                        </g>
                    </g>
                </g>
            </g>
        </g>
    </g>
</svg>