<?xml version="1.0" encoding="UTF-8" standalone="no"?>
<svg width="76px" height="76px" viewBox="0 0 76 76" version="1.1" xmlns="http://www.w3.org/2000/svg" xmlns:xlink="http://www.w3.org/1999/xlink">
    <!-- Generator: Sketch 39.1 (31720) - http://www.bohemiancoding.com/sketch -->
    <title>signup_icon</title>
    <desc>Created with Sketch.</desc>
    <defs></defs>
    <g id="Website-1024" stroke="none" stroke-width="1" fill="none" fill-rule="evenodd">
        <g id="home" transform="translate(-176.000000, -746.000000)">
            <g id="how-it-works" transform="translate(0.000000, 572.000000)">
                <g id="how-it-work-steps" transform="translate(115.000000, 172.000000)">
                    <g id="signup_icon" transform="translate(61.000000, 2.000000)">
                        <circle id="Oval-2" fill="#45D8B8" cx="38" cy="38" r="38"></circle>
                        <path d="M52.2857143,38.9933516 L52.2857143,57.1978022 C52.2857143,58.1930659 51.4030879,59 50.4078242,59 L24.8021978,59 C23.8069341,59 23,58.1930659 23,57.1978022 L23,22.8758462 C23,21.8805824 23.8069341,21.1538462 24.8021978,21.1538462 L43.5333407,21.1538462 C44.5286044,21.1538462 45.3355385,21.9607802 45.3355385,22.956044 C45.3355385,23.9513077 44.5286044,24.7582418 43.5333407,24.7582418 L26.6043956,24.7582418 L26.6043956,55.3956044 L48.6813187,55.3956044 L48.6813187,38.9933516 C48.6813187,37.9980879 49.4882527,37.1911538 50.4835165,37.1911538 C51.4787802,37.1911538 52.2857143,37.9980879 52.2857143,38.9933516 L52.2857143,38.9933516 Z M38.4989011,40.6094725 L36.3344615,41.4682198 L37.2013187,39.2510659 L54.9079121,21.2768462 L56.2437912,22.6307473 L38.4989011,40.6094725 Z M59.1047802,21.6814396 L55.8693846,18.4023407 C55.6152747,18.1450769 55.2688022,18 54.907011,18 L54.9065604,18 C54.5447692,18 54.1982967,18.1455275 53.9441868,18.4027912 L35.0805824,37.5515934 C34.9521758,37.6822527 34.8512527,37.8372418 34.7845714,38.008 L32.6854615,43.3785495 C32.4894725,43.8795604 32.6093187,44.4490549 32.9904835,44.8288681 C33.2490989,45.0856813 33.5933187,45.2221978 33.9442967,45.2221978 C34.1119011,45.2221978 34.2808571,45.1911099 34.4426044,45.1271319 L39.759989,43.0176593 C39.9339011,42.9482747 40.092044,42.8437473 40.2236044,42.7103846 L59.1047802,23.5805055 C59.6242637,23.0538132 59.6242637,22.2076813 59.1047802,21.6814396 L59.1047802,21.6814396 Z" id="document-edit" fill="#F7F9F9"></path>
                    </g>
                </g>
            </g>
        </g>
    </g>
</svg>
