<?xml version="1.0" encoding="UTF-8"?>
<svg width="48px" height="48px" viewBox="0 0 48 48" version="1.1" xmlns="http://www.w3.org/2000/svg" xmlns:xlink="http://www.w3.org/1999/xlink">
    <!-- Generator: Sketch 46.2 (44496) - http://www.bohemiancoding.com/sketch -->
    <title>twitter</title>
    <desc>Created with Sketch.</desc>
    <defs></defs>
    <g id="Symbols" stroke="none" stroke-width="1" fill="none" fill-rule="evenodd">
        <g id="footer" transform="translate(-845.000000, -146.000000)">
            <g id="Group-+-150-Court-St.-2nd-Fl-+-Contact-Us-Mask">
                <g>
                    <g id="Group-2" transform="translate(787.000000, 145.000000)">
                        <g id="twitter" transform="translate(57.917854, 1.000000)">
                            <circle id="Oval" fill="#46AF97" cx="24.0821463" cy="24" r="24"></circle>
                            <path d="M39.022853,15.9959243 C39.2518053,15.2455864 38.9899455,14.4341902 38.3556007,13.9457243 C37.9957186,13.6668917 37.5602192,13.5264577 37.1184183,13.5264577 C36.7697387,13.5264577 36.4210592,13.6146529 36.1080877,13.7957924 C35.4863458,14.1492518 34.8358973,14.4328334 34.1567423,14.6329687 C32.858646,13.6709622 31.2489786,13.135685 29.5945009,13.135685 C25.8024353,13.135685 22.6608182,15.8765215 22.1658052,19.4206131 C19.1425151,18.7937485 16.3880864,17.1797757 14.4038335,14.8215708 C14.0257472,14.3697398 13.4586177,14.1119384 12.8662825,14.1119384 C12.8165712,14.1119384 12.7640592,14.1153305 12.710847,14.1187226 C12.0610987,14.1682477 11.4806662,14.5230639 11.1522913,15.0671606 C10.4857391,16.1736716 10.1349591,17.4355419 10.1349591,18.7211571 C10.1349591,19.5895409 10.2938953,20.4341799 10.5879625,21.2231881 C10.2714902,21.5718985 10.0880484,22.0237294 10.0880484,22.5013406 C10.0880484,24.4063576 10.8302178,26.1580507 12.0667,27.474195 C11.9903826,27.8025526 12.0022853,28.1499062 12.1136107,28.4823344 C12.5414084,29.7808396 13.324187,30.8982054 14.3366181,31.7509855 C13.6791681,31.89549 12.9986127,31.9694383 12.3082551,31.9694383 C11.9504735,31.9694383 11.5884909,31.9470503 11.2237076,31.9070232 C11.14669,31.8975253 11.0696724,31.8927763 10.9912545,31.8927763 C10.160865,31.8927763 9.40889333,32.3961675 9.12672893,33.1716072 C8.81375749,34.0128541 9.14493308,34.9538294 9.92071016,35.4375463 C12.7710608,37.2062 16.0646126,38.1417479 19.444284,38.1417479 C30.405286,38.1417479 36.9923896,29.5935943 37.1107166,21.2496466 C38.0027202,20.5135556 38.7868992,19.6662029 39.452051,18.7204787 C39.7034084,18.3989053 39.8525424,17.999313 39.8525424,17.5617289 C39.8525424,16.9179037 39.5248676,16.34667 39.022853,15.9959243 Z M35.11036,20.3276672 C35.1229628,20.5562964 35.127864,20.7869609 35.127864,21.0183038 C35.127864,28.0766363 29.5832984,36.2150212 19.444284,36.2150212 C16.3320736,36.2150212 13.4341121,35.3310336 10.993355,33.8154324 C11.422553,33.8615653 11.8636537,33.8907376 12.3082551,33.8907376 C14.8911447,33.8907376 17.2674871,33.0359222 19.155118,31.6024104 C16.7402668,31.5610265 14.7063025,30.0148962 14.0040422,27.8934616 C14.3408191,27.9558767 14.686698,27.9904763 15.0388784,27.9904763 C15.5429935,27.9904763 16.0303047,27.9239907 16.4917101,27.8025526 C13.9697344,27.3093377 12.0688005,25.1533034 12.0688005,22.5630772 L12.0688005,22.4965916 C12.8123702,22.8955054 13.6630644,23.1356678 14.5662706,23.1628048 C13.087533,22.2048689 12.1157112,20.568508 12.1157112,18.7164081 C12.1157112,17.7381194 12.3873732,16.8215674 12.8620816,16.0325592 C15.5787017,19.263897 19.6417291,21.3894022 24.2235749,21.6119255 C24.1283532,21.2225096 24.0821427,20.812741 24.0821427,20.3941529 C24.0821427,17.4470751 26.5495059,15.0556274 29.5924004,15.0556274 C31.1789626,15.0556274 32.6121897,15.7042016 33.6176192,16.7401564 C34.8716055,16.5020293 36.0527751,16.057661 37.1177182,15.4450433 C36.705324,16.6913098 35.8308244,17.7381194 34.694465,18.3989053 C35.8084193,18.2713614 36.8691614,17.9843877 37.8591874,17.5576584 C37.1219191,18.6343187 36.1886061,19.5746156 35.11036,20.3276672 Z" id="Shape" fill="#FDFFF9"></path>
                        </g>
                    </g>
                </g>
            </g>
        </g>
    </g>
</svg>